<?xml version="1.0" standalone="no"?>
<!DOCTYPE svg PUBLIC "-//W3C//DTD SVG 1.1//EN" "http://www.w3.org/Graphics/SVG/1.1/DTD/svg11.dtd" >
<svg xmlns="http://www.w3.org/2000/svg" xmlns:xlink="http://www.w3.org/1999/xlink" version="1.1">
<metadata>
Created by FontForge 20161013 at Mon Mar  9 00:16:44 2015
 By ,,,
Copyright (c) 2013 by Design by Anuthin Wongsunkakon (2005) Revival by Stawix Ruecha (2013). For Cadson Demak All rights reserved.
</metadata>
<defs>
<font id="AminoAlt-Regular5" horiz-adv-x="641" >
  <font-face 
    font-family="Amino-Alt 3"
    font-weight="400"
    font-stretch="normal"
    units-per-em="1000"
    panose-1="2 0 0 0 0 0 0 0 0 0"
    ascent="773"
    descent="-227"
    x-height="500"
    cap-height="700"
    bbox="-52 -209 1063 958"
    underline-thickness="20"
    underline-position="-120"
    unicode-range="U+0020-FB02"
  />
<missing-glyph horiz-adv-x="500" 
d="M0 0v700h500v-700h-500zM250 395l170 255h-340zM280 350l170 -255v510zM80 50h340l-170 255zM50 605v-510l170 255z" />
    <glyph glyph-name="fi" unicode="fi" horiz-adv-x="630" 
d="M553 500v-500h-108v411q-36 0 -108 0.5t-108 0.5v-412h-107v412q-32 -1 -95 -1v89h95q0 98 50 154t148 56q84 0 127 -28q18 -12 18 -37q0 -23 -13 -49q-48 25 -119 25q-56 0 -82.5 -29t-26.5 -92h329z" />
    <glyph glyph-name="fl" unicode="fl" horiz-adv-x="656" 
d="M224 500h152v-89l-147 1v-412h-107v412l-95 -1v89h95q0 97 58.5 153.5t175.5 56.5q123 0 222 -39v-671h-108v604q-48 17 -118 17q-60 0 -94 -31.5t-34 -89.5z" />
    <glyph glyph-name=".notdef" horiz-adv-x="500" 
d="M0 0v700h500v-700h-500zM250 395l170 255h-340zM280 350l170 -255v510zM80 50h340l-170 255zM50 605v-510l170 255z" />
    <glyph glyph-name=".null" horiz-adv-x="0" 
 />
    <glyph glyph-name="nonmarkingreturn" horiz-adv-x="333" 
 />
    <glyph glyph-name="space" unicode=" " horiz-adv-x="245" 
 />
    <glyph glyph-name="exclam" unicode="!" horiz-adv-x="245" 
d="M182 700l-16 -508h-86l-17 508h119zM55 56q0 64 68 64q67 0 67 -64t-67 -64q-68 0 -68 64z" />
    <glyph glyph-name="quotedbl" unicode="&#x22;" horiz-adv-x="352" 
d="M146 700l-11 -220h-70l-11 220h92zM298 700l-10 -220h-71l-10 220h91z" />
    <glyph glyph-name="numbersign" unicode="#" 
d="M512 483h88v-74h-101l-19 -109h85v-75h-98l-39 -225h-99l39 225h-137l-40 -225h-99l39 225h-90v75h103l18 109h-87v74h100l37 218h101l-38 -218h137l37 218h101zM262 410l-20 -111h139l19 111h-138z" />
    <glyph glyph-name="dollar" unicode="$" 
d="M295 -100v92q-111 -1 -200 41q-32 15 -32 58q0 34 15 65q41 -29 103.5 -47t113.5 -18v229q-123 31 -176 77t-53 132q0 79 58.5 127t170.5 52v92h54v-93q114 -5 170 -42q26 -18 26 -51q0 -23 -16 -59q-73 47 -180 53v-196q114 -29 172.5 -78t58.5 -136q0 -94 -60.5 -144.5
t-170.5 -58.5v-95h-54zM467 196q0 41 -30 66t-88 43v-211q118 16 118 102zM180 529q0 -39 26 -60.5t89 -40.5v180q-115 -7 -115 -79z" />
    <glyph glyph-name="percent" unicode="%" horiz-adv-x="770" 
d="M156 0l365 701h93l-364 -701h-94zM52 550q0 74 37.5 115.5t99.5 41.5q61 0 98.5 -41.5t37.5 -115.5q0 -73 -37.5 -114.5t-98.5 -41.5q-62 0 -99.5 41.5t-37.5 114.5zM240 550q0 43 -14 65t-37 22t-37.5 -22t-14.5 -65q0 -42 14.5 -64t37.5 -22t37 22t14 64zM446 147
q0 74 37.5 115t98.5 41t98.5 -41t37.5 -115q0 -73 -37.5 -114.5t-98.5 -41.5t-98.5 41.5t-37.5 114.5zM633 147q0 43 -14 65t-37 22t-37 -22t-14 -65q0 -42 14 -64t37 -22t37 22t14 64z" />
    <glyph glyph-name="ampersand" unicode="&#x26;" horiz-adv-x="671" 
d="M371 342l125 -142q37 44 41 121q43 -4 65.5 -25t22.5 -51q0 -44 -61 -123l82 -93v-29h-100q-9 9 -26 28t-26 28q-78 -65 -187 -65q-120 0 -190 63t-70 161q0 67 35 119.5t105 79.5q-62 62 -62 132q0 69 52 116.5t147 47.5q92 0 141.5 -50t49.5 -126q0 -120 -144 -192z
M308 88q83 0 121 41l-189 213q-42 -17 -63 -51t-21 -70q0 -58 42 -95.5t110 -37.5zM411 531q0 38 -22 63t-64 25q-41 0 -67 -22.5t-26 -54.5q0 -11 3 -22t7 -19.5t14 -22t16 -21t22 -26t25 -28.5q47 32 69.5 62t22.5 66z" />
    <glyph glyph-name="quotesingle" unicode="'" horiz-adv-x="200" 
d="M146 700l-11 -220h-70l-11 220h92z" />
    <glyph glyph-name="parenleft" unicode="(" horiz-adv-x="304" 
d="M64 303q0 260 173 407l53 -57q-61 -61 -91 -156.5t-30 -193.5t30 -193t91 -156l-53 -58q-173 147 -173 407z" />
    <glyph glyph-name="parenright" unicode=")" horiz-adv-x="304" 
d="M240 303q0 -260 -173 -407l-53 58q61 61 91 156t30 193t-30 193.5t-91 156.5l53 57q173 -147 173 -407z" />
    <glyph glyph-name="asterisk" unicode="*" horiz-adv-x="449" 
d="M397 556l-120 -40l86 -94l-53 -48l-85 107l-86 -108l-50 50l84 94l-121 40l26 66l115 -47l-4 125h73l-5 -125l115 47z" />
    <glyph glyph-name="plus" unicode="+" 
d="M565 245h-193v-188h-103v188h-194v94h194v188h103v-188h193v-94z" />
    <glyph glyph-name="comma" unicode="," horiz-adv-x="247" 
d="M56 56q0 64 67 64q68 0 68 -69q0 -34 -16 -85t-39 -94l-50 21q23 57 28 99q-58 4 -58 64z" />
    <glyph glyph-name="hyphen" unicode="-" horiz-adv-x="412" 
d="M38 331h336v-91h-336v91z" />
    <glyph glyph-name="period" unicode="." horiz-adv-x="247" 
d="M56 56q0 64 67 64q68 0 68 -64t-68 -64q-67 0 -67 64z" />
    <glyph glyph-name="slash" unicode="/" horiz-adv-x="303" 
d="M-11 -100l205 801h98l-204 -801h-99z" />
    <glyph glyph-name="zero" unicode="0" 
d="M45 350q0 172 75 266.5t201 94.5t201 -94.5t75 -266.5q0 -171 -75 -265.5t-201 -94.5t-201 94.5t-75 265.5zM482 350q0 125 -42 193t-119 68t-119 -68t-42 -193t42 -192.5t119 -67.5t119 68t42 192z" />
    <glyph glyph-name="one" unicode="1" 
d="M288 563l-123 -86l-56 77l193 148h101v-606l162 2v-98h-447v98l170 -2v467z" />
    <glyph glyph-name="two" unicode="2" 
d="M561 0h-486v90q152 87 250 187t98 202q0 132 -134 132q-93 0 -174 -47q-26 29 -26 65q0 28 18 38q69 44 188 44q122 0 183 -62.5t61 -169.5q0 -191 -286 -381l308 2v-100z" />
    <glyph glyph-name="three" unicode="3" 
d="M285 90q76 0 122 35t46 101q0 63 -42.5 95t-120.5 32h-70l-30 51l201 198l-314 -1v100h457v-84l-184 -179q106 -7 162.5 -65.5t56.5 -148.5q0 -115 -76 -174.5t-205 -59.5q-62 0 -117 13.5t-83 30.5q-18 10 -18 38q0 42 31 69q33 -22 85.5 -36.5t98.5 -14.5z" />
    <glyph glyph-name="four" unicode="4" 
d="M597 146h-101v-146h-112v146h-346v80l358 476h100v-461h101v-95zM384 241v286l-215 -286h215z" />
    <glyph glyph-name="five" unicode="5" 
d="M284 90q83 0 129 33.5t46 100.5q0 65 -41.5 97t-132.5 32h-198q10 125 29 347h411v-100l-314 2l-13 -156h86q288 0 288 -222q0 -117 -79 -175t-208 -58q-133 0 -209 45q-17 10 -17 38q0 42 31 69q79 -53 192 -53z" />
    <glyph glyph-name="six" unicode="6" 
d="M374 616q-88 0 -138.5 -61.5t-57.5 -164.5q85 77 193 77q110 0 167 -62t57 -169q0 -118 -68 -181.5t-178 -63.5q-137 0 -211 90.5t-74 266.5q0 174 80.5 268t214.5 94q102 0 150 -37q20 -15 20 -42q0 -30 -17 -55q-64 40 -138 40zM353 375q-50 0 -96.5 -24.5t-77.5 -58.5
q3 -96 48.5 -152t123.5 -56q57 0 94 40t37 112q0 139 -129 139z" />
    <glyph glyph-name="seven" unicode="7" 
d="M79 601v100h499v-90l-312 -611h-127l308 601h-368z" />
    <glyph glyph-name="eight" unicode="8" 
d="M321 -10q-130 0 -200.5 50t-70.5 146q0 68 46 117.5t111 69.5q-58 18 -90.5 59.5t-32.5 96.5q0 94 64.5 138t172.5 44t172.5 -44t64.5 -138q0 -55 -32.5 -96.5t-90.5 -59.5q65 -20 111 -69.5t46 -116.5q0 -97 -71 -147t-200 -50zM321 615q-126 0 -126 -88q0 -40 33 -67.5
t93 -40.5q60 13 92.5 40.5t32.5 67.5q0 88 -125 88zM321 87q75 0 116.5 27.5t41.5 80.5q0 48 -44.5 85t-113.5 47q-69 -10 -113.5 -47t-44.5 -85q0 -53 41.5 -80.5t116.5 -27.5z" />
    <glyph glyph-name="nine" unicode="9" 
d="M267 84q88 0 138.5 61.5t57.5 164.5q-31 -34 -82 -55.5t-106 -21.5q-114 0 -172 62t-58 168q0 119 68.5 183t180.5 64q135 0 209 -91t74 -267q0 -173 -80.5 -267t-214.5 -94q-108 0 -153 37q-18 14 -18 42t18 54q64 -40 138 -40zM288 325q50 0 96 24.5t78 58.5
q-4 96 -48 152t-119 56q-61 0 -99 -40t-38 -113q0 -63 31.5 -100.5t98.5 -37.5z" />
    <glyph glyph-name="colon" unicode=":" horiz-adv-x="264" 
d="M64 56q0 64 68 64t68 -64t-68 -64t-68 64zM64 409q0 64 68 64t68 -64t-68 -64t-68 64z" />
    <glyph glyph-name="semicolon" unicode=";" horiz-adv-x="264" 
d="M64 409q0 64 68 64t68 -64t-68 -64t-68 64zM64 56q0 64 68 64t68 -69q0 -34 -16 -85t-39 -94l-50 21q23 57 28 99q-59 4 -59 64z" />
    <glyph glyph-name="less" unicode="&#x3c;" 
d="M84 264v56l448 246v-101l-318 -173l318 -175v-100z" />
    <glyph glyph-name="equal" unicode="=" 
d="M554 145h-467v89h467v-89zM554 350h-467v89h467v-89z" />
    <glyph glyph-name="greater" unicode="&#x3e;" 
d="M557 320v-56l-448 -247v100l317 175l-317 173v101z" />
    <glyph glyph-name="question" unicode="?" horiz-adv-x="544" 
d="M245 711q119 0 185 -56.5t66 -145.5q0 -38 -18 -73.5t-43.5 -62t-51 -51.5t-43.5 -53t-18 -56v-21h-111v21q0 33 17.5 64.5t42.5 57t50 50.5t42.5 55.5t17.5 62.5q0 48 -36 78t-102 30q-97 0 -182 -52q-24 37 -24 68t18 41q71 43 190 43zM200 56q0 64 68 64q67 0 67 -64
t-67 -64q-68 0 -68 64z" />
    <glyph glyph-name="at" unicode="@" horiz-adv-x="1037" 
d="M742 63q61 0 109 75t48 203q0 136 -81 217.5t-235 81.5q-199 0 -322 -127t-123 -323q0 -154 93.5 -240.5t253.5 -86.5q121 0 229 51q19 -19 19 -48q0 -20 -17 -29q-37 -17 -102.5 -30t-131.5 -13q-193 0 -307.5 102.5t-114.5 292.5q0 227 142.5 373.5t379.5 146.5
q192 0 293.5 -98.5t101.5 -267.5q0 -160 -70.5 -254.5t-166.5 -94.5q-97 0 -112 78q-28 -33 -73.5 -52.5t-94.5 -19.5q-86 0 -133.5 53.5t-47.5 145.5q0 127 81.5 219t215.5 92q90 0 175 -43l-60 -342q-1 -5 -1 -14q0 -21 13 -34.5t39 -13.5zM593 150l47 263q-26 9 -67 9
q-87 0 -140 -64t-53 -157q0 -54 22 -83.5t63 -29.5q79 0 128 62z" />
    <glyph glyph-name="A" unicode="A" horiz-adv-x="686" 
d="M421 643l260 -643h-119l-68 170h-302l-67 -170h-120l285 702h41q39 0 58 -13.5t32 -45.5zM343 555l-113 -289h226z" />
    <glyph glyph-name="B" unicode="B" horiz-adv-x="688" 
d="M496 510q0 92 -117 92h-187v-189h183q56 0 88.5 26.5t32.5 70.5zM528 207q0 56 -39 81.5t-120 25.5h-177v-215h193q73 0 108 26t35 82zM80 0v701h298q116 0 173.5 -48.5t57.5 -134.5q0 -54 -27.5 -91.5t-71.5 -51.5q66 -14 98.5 -59t32.5 -110q0 -99 -63.5 -152.5
t-192.5 -53.5h-305z" />
    <glyph glyph-name="C" unicode="C" horiz-adv-x="638" 
d="M390 90q107 0 195 61q17 -32 17 -61q0 -49 -60.5 -74t-150.5 -25q-167 0 -254 96.5t-87 268.5q0 164 87 259t248 95q101 0 171 -36q33 -18 33 -63q0 -27 -18 -55q-82 54 -187 54q-106 0 -162.5 -68t-56.5 -186q0 -127 57 -196.5t168 -69.5z" />
    <glyph glyph-name="D" unicode="D" horiz-adv-x="716" 
d="M195 100h140q106 0 161 68t55 188q0 117 -59 181t-170 64h-127v-501zM335 0h-255v701h242q165 0 254.5 -90t89.5 -255q0 -166 -84.5 -261t-246.5 -95z" />
    <glyph glyph-name="E" unicode="E" horiz-adv-x="587" 
d="M459 309h-267v-209h368v-100h-480v701h470v-100h-358v-193h332v-31q0 -68 -65 -68z" />
    <glyph glyph-name="F" unicode="F" horiz-adv-x="567" 
d="M517 305h-323v-305h-114v700h460v-100h-347v-196h324v-99z" />
    <glyph glyph-name="G" unicode="G" horiz-adv-x="706" 
d="M414 404h227v-347q-110 -67 -247 -67q-169 0 -256.5 96t-87.5 271q0 163 90.5 258.5t255.5 95.5q119 0 188 -37q33 -18 33 -62q0 -28 -18 -54q-84 54 -204 54q-109 0 -169.5 -69t-60.5 -186q0 -128 57.5 -197.5t170.5 -69.5q78 0 136 29v187h-178v32q0 35 14.5 50.5
t48.5 15.5z" />
    <glyph glyph-name="H" unicode="H" horiz-adv-x="735" 
d="M80 0v700h42q38 0 55.5 -17t17.5 -54v-221h345v292h115v-700h-115v308h-345v-308h-115z" />
    <glyph glyph-name="I" unicode="I" horiz-adv-x="283" 
d="M83 0v700h42q38 0 55.5 -17t17.5 -54v-629h-115z" />
    <glyph glyph-name="J" unicode="J" horiz-adv-x="512" 
d="M193 90q127 0 127 162v449h115v-451q0 -131 -61 -195.5t-175 -64.5q-97 0 -155 33q-31 18 -31 58q0 32 12 63q71 -54 168 -54z" />
    <glyph glyph-name="K" unicode="K" horiz-adv-x="649" 
d="M80 0v700h42q38 0 55.5 -17t17.5 -54v-230l299 301h146l-274 -275l284 -425h-41q-56 0 -85 19.5t-58 63.5l-177 265l-94 -94v-254h-115z" />
    <glyph glyph-name="L" unicode="L" horiz-adv-x="564" 
d="M80 0v700h42q38 0 55.5 -17t17.5 -54v-529h356v-100h-471z" />
    <glyph glyph-name="M" unicode="M" horiz-adv-x="850" 
d="M429 185h-37l-117 185q-33 52 -87 146h-1q7 -112 7 -209v-307h-114v700h111l234 -377l234 377h111v-700h-114v307q0 97 7 209h-1l-177 -288q-14 -23 -25 -33t-31 -10z" />
    <glyph glyph-name="N" unicode="N" horiz-adv-x="749" 
d="M669 700v-700h-112l-362 515v-515h-115v700h48q50 0 82 -25l344 -490v515h115z" />
    <glyph glyph-name="O" unicode="O" horiz-adv-x="753" 
d="M376 610q-106 0 -158.5 -69t-52.5 -191t52.5 -191t158.5 -69t159 69t53 191t-53 191t-159 69zM376 710q160 0 243.5 -95.5t83.5 -264.5t-83.5 -264t-243.5 -95t-243 95t-83 264t83 264.5t243 95.5z" />
    <glyph glyph-name="P" unicode="P" 
d="M347 256h-151v-256h-115v701h266q127 0 189 -58.5t62 -164.5q0 -107 -62 -164.5t-189 -57.5zM195 601v-245h153q136 0 136 122q0 57 -33.5 90t-102.5 33h-153z" />
    <glyph glyph-name="Q" unicode="Q" horiz-adv-x="754" 
d="M376 710q160 0 243.5 -95.5t83.5 -264.5q0 -157 -72 -250.5t-210 -106.5q22 -75 120 -75q51 0 99 19q-3 -64 -33 -88t-85 -24q-162 0 -202 169q-133 15 -201.5 108.5t-68.5 247.5q0 169 83 264.5t243 95.5zM376 610q-106 0 -158.5 -69t-52.5 -191t52.5 -191t158.5 -69
t159 69t53 191t-53 191t-159 69z" />
    <glyph glyph-name="R" unicode="R" horiz-adv-x="663" 
d="M388 287h-193v-287h-115v700h287q124 0 186 -53.5t62 -153.5q0 -135 -115 -184l129 -309h-53q-69 0 -93 57zM194 600v-213h174q66 0 99.5 28.5t33.5 77.5q0 107 -133 107h-174z" />
    <glyph glyph-name="S" unicode="S" horiz-adv-x="614" 
d="M285 89q78 0 122.5 27.5t44.5 79.5q0 48 -40 74t-122 46q-128 33 -183.5 79.5t-55.5 133.5q0 83 63.5 132.5t185.5 49.5q126 0 198 -38q32 -17 32 -57q0 -26 -16 -60q-88 55 -209 55q-140 0 -140 -80q0 -44 33.5 -66.5t120.5 -45.5q121 -30 183.5 -80.5t62.5 -140.5
q0 -104 -74.5 -156t-206.5 -52q-55 0 -112 12.5t-92 29.5q-32 15 -32 58q0 34 15 64q41 -29 102.5 -47t119.5 -18z" />
    <glyph glyph-name="T" unicode="T" horiz-adv-x="593" 
d="M583 599l-229 3v-602h-116v602l-229 -3v101h574v-101z" />
    <glyph glyph-name="U" unicode="U" horiz-adv-x="734" 
d="M367 -9q-146 0 -218 78t-72 224v407h42q38 0 55.5 -17t17.5 -54v-328q0 -211 175 -211q174 0 174 211v399h116v-407q0 -146 -72 -224t-218 -78z" />
    <glyph glyph-name="V" unicode="V" horiz-adv-x="678" 
d="M5 700h63q37 0 53 -11t27 -40l136 -357q38 -100 55 -161q18 60 58 168l153 401h123l-280 -702h-108z" />
    <glyph glyph-name="W" unicode="W" horiz-adv-x="1054" 
d="M597 646l114 -324q11 -32 31 -95t26 -80q4 0 12 31t18 77t15 62l105 383h124l-208 -702h-122l-112 319q-15 42 -40 125t-32 104q-4 0 -18.5 -46t-32 -106t-23.5 -77l-112 -319h-122l-208 702h62q34 0 51.5 -12.5t25.5 -41.5l88 -324q9 -30 24 -93t21 -82h2q6 16 25 77.5
t30 92.5l135 383h38q38 0 55.5 -12t27.5 -42z" />
    <glyph glyph-name="X" unicode="X" horiz-adv-x="665" 
d="M137 0h-134l264 359l-250 341h76q20 0 33 -2.5t24 -10.5t16 -13.5t18 -22.5t21 -27l127 -181l184 257h132l-250 -340l264 -360h-75q-36 0 -55 10t-37 35l-163 231z" />
    <glyph glyph-name="Y" unicode="Y" horiz-adv-x="637" 
d="M631 700l-255 -408v-292h-114v292l-256 408h70q34 0 52.5 -9.5t32.5 -31.5l158 -265l182 306h130z" />
    <glyph glyph-name="Z" unicode="Z" horiz-adv-x="603" 
d="M419 602q-124 0 -372 -2v32q0 68 66 68h451v-95l-391 -508q133 0 403 2v-99h-549v94z" />
    <glyph glyph-name="bracketleft" unicode="[" horiz-adv-x="277" 
d="M257 701v-83h-77v-635h77v-83h-177v801h177z" />
    <glyph glyph-name="backslash" unicode="\" horiz-adv-x="303" 
d="M109 701l205 -801h-99l-204 801h98z" />
    <glyph glyph-name="bracketright" unicode="]" horiz-adv-x="276" 
d="M20 618v83h176v-801h-176v83h76v635h-76z" />
    <glyph glyph-name="asciicircum" unicode="^" horiz-adv-x="482" 
d="M282 702l168 -299h-103l-106 203l-106 -203h-103l168 299h82z" />
    <glyph glyph-name="underscore" unicode="_" horiz-adv-x="492" 
d="M30 -94h432v-64h-432v64z" />
    <glyph glyph-name="grave" unicode="`" horiz-adv-x="363" 
d="M229 595h-69l-146 119q30 38 79 38q42 0 60 -31z" />
    <glyph glyph-name="a" unicode="a" horiz-adv-x="599" 
d="M421 173v160q-53 85 -136 85q-60 0 -94.5 -43t-34.5 -125t34.5 -125.5t89.5 -43.5q43 0 81 26t60 66zM528 447v-342q0 -68 21 -106h-62q-60 0 -66 82q-23 -39 -66 -65t-97 -26q-95 0 -152.5 67t-57.5 193q0 125 58.5 192.5t152.5 67.5q106 0 160 -85l8 75h46
q30 0 42.5 -12t12.5 -41z" />
    <glyph glyph-name="b" unicode="b" horiz-adv-x="597" 
d="M181 335v-162q23 -41 59.5 -66.5t78.5 -25.5q55 0 88 43.5t33 125.5q0 83 -33 125.5t-92 42.5q-76 0 -134 -83zM184 80q-3 -23 -10 -80h-99v700h38q71 0 71 -68v-207q59 85 157 85q94 0 150.5 -67.5t56.5 -192.5q0 -126 -56 -193t-151 -67q-54 0 -94.5 25.5t-62.5 64.5z
" />
    <glyph glyph-name="c" unicode="c" horiz-adv-x="509" 
d="M47 252q0 122 64 190t185 68q105 0 148 -32q20 -14 20 -41q0 -30 -13 -58q-70 40 -148 40q-74 0 -111 -43.5t-37 -123.5t38.5 -125.5t115.5 -45.5q80 0 151 46q14 -30 14 -54q0 -29 -20 -45q-49 -37 -152 -37q-124 0 -189.5 69.5t-65.5 191.5z" />
    <glyph glyph-name="d" unicode="d" horiz-adv-x="597" 
d="M416 173v162q-57 83 -133 83q-59 0 -92.5 -42.5t-33.5 -125.5q0 -82 33 -125t88 -43q42 0 78.5 25.5t59.5 65.5zM522 632v-527q0 -68 21 -106h-62q-60 0 -66 83q-23 -39 -64.5 -65.5t-94.5 -26.5q-95 0 -151 67t-56 193q0 127 57 194t150 67q97 0 157 -85v275h38
q71 0 71 -69z" />
    <glyph glyph-name="e" unicode="e" horiz-adv-x="568" 
d="M306 78q105 0 168 57q10 -24 10 -44q0 -50 -34 -68q-62 -32 -144 -32q-130 0 -194.5 67.5t-64.5 191.5q0 122 63 191t181 69q106 0 164.5 -67t58.5 -179v-58h-358q7 -61 46 -94.5t104 -33.5zM155 284h254q0 63 -31 101t-87 38q-60 0 -95 -36.5t-41 -102.5z" />
    <glyph glyph-name="f" unicode="f" horiz-adv-x="393" 
d="M28 411v90l95 -1v37q0 84 42.5 129t126.5 45q55 0 92 -16q27 -13 27 -44q0 -24 -13 -52q-47 22 -91 22t-63 -21.5t-19 -66.5v-33l152 1v-90l-148 2v-413h-106v412z" />
    <glyph glyph-name="g" unicode="g" horiz-adv-x="539" 
d="M232 81h77q201 0 201 -141q0 -71 -59.5 -110t-178.5 -39q-226 0 -226 149q0 78 71 111q-45 25 -45 81q0 40 31 67q-57 42 -57 133q0 178 213 178q73 0 117 -21q37 21 88 21q65 0 65 -51q0 -24 -7 -43q-27 21 -82 21q31 -37 31 -105q0 -180 -212 -180q-54 0 -84 11
q-9 -13 -9 -31q0 -19 15 -35t51 -16zM149 332q0 -50 26.5 -73.5t83.5 -23.5t83 23.5t26 73.5t-26 73t-83 23t-83.5 -23t-26.5 -73zM307 2h-96q-65 -10 -65 -61q0 -69 127 -69q136 0 136 68q0 33 -24.5 47.5t-77.5 14.5z" />
    <glyph glyph-name="h" unicode="h" horiz-adv-x="620" 
d="M439 69v229q0 58 -24.5 88.5t-70.5 30.5q-91 0 -160 -84v-333h-109v701h38q71 0 71 -69v-212q31 37 81 63.5t108 26.5q83 0 128.5 -52t45.5 -150v-308h-37q-37 0 -54 16.5t-17 52.5z" />
    <glyph glyph-name="i" unicode="i" horiz-adv-x="261" 
d="M185 432v-432h-109v501h38q71 0 71 -69zM130 699q31 0 50 -15.5t19 -46.5q0 -32 -19 -47.5t-50 -15.5q-30 0 -49 15.5t-19 46.5q0 63 68 63z" />
    <glyph glyph-name="j" unicode="j" horiz-adv-x="261" 
d="M130 699q30 0 49 -15.5t19 -47.5q0 -31 -19 -46.5t-49 -15.5q-31 0 -50 15.5t-19 46.5q0 32 19 47.5t50 15.5zM52 -208q-82 0 -82 54q0 30 9 50q21 -12 43 -12q54 0 54 75v541h38q70 0 70 -68v-480q0 -160 -132 -160z" />
    <glyph glyph-name="k" unicode="k" horiz-adv-x="565" 
d="M184 245v-245h-109v700h38q71 0 71 -68v-305q43 12 81 12l147 161h127l-151 -162q-20 -22 -40 -31q31 -21 52 -62.5t29 -77.5t23.5 -64t38.5 -28q26 0 45 19q19 -23 17 -52q-1 -51 -81 -51q-54 0 -83 33t-46 90q-26 84 -45 113t-53 29q-30 0 -61 -11z" />
    <glyph glyph-name="l" unicode="l" horiz-adv-x="263" 
d="M185 632v-632h-108v701h37q71 0 71 -69z" />
    <glyph glyph-name="m" unicode="m" horiz-adv-x="888" 
d="M708 68v255q0 96 -71 96q-79 0 -139 -85v-334h-107v323q0 96 -71 96q-82 0 -139 -87v-332h-107v500h36q39 0 53.5 -19t17.5 -62q66 90 171 90q107 0 135 -99q30 43 77 71t103 28q73 0 110.5 -46.5t37.5 -129.5v-333h-36q-71 0 -71 68z" />
    <glyph glyph-name="n" unicode="n" horiz-adv-x="615" 
d="M181 419q32 37 81 63.5t107 26.5q84 0 128.5 -51.5t44.5 -150.5v-307h-38q-71 0 -71 68v229q0 119 -93 119q-87 0 -158 -83v-333h-108v500h36q39 0 53.5 -19t17.5 -62z" />
    <glyph glyph-name="o" unicode="o" horiz-adv-x="596" 
d="M155 250q0 -80 36.5 -125t106.5 -45t106 45t36 125t-36 124.5t-106 44.5t-106.5 -44.5t-36.5 -124.5zM47 250q0 122 64.5 190.5t186.5 68.5q121 0 186 -68.5t65 -190.5t-64.5 -190.5t-186.5 -68.5t-186.5 68.5t-64.5 190.5z" />
    <glyph glyph-name="p" unicode="p" horiz-adv-x="596" 
d="M180 327v-154q23 -41 59 -66.5t79 -25.5q55 0 88 43.5t33 125.5q0 83 -33 125.5t-92 42.5q-79 0 -134 -91zM181 419q59 91 159 91q93 0 150 -67t57 -193t-56.5 -193t-150.5 -67q-104 0 -158 90v-280h-108v700h36q39 0 53.5 -19t17.5 -62z" />
    <glyph glyph-name="q" unicode="q" horiz-adv-x="595" 
d="M412 425l8 75h46q30 0 42.5 -12t12.5 -41v-647h-108v279q-57 -89 -157 -89q-95 0 -151.5 67t-56.5 193t57 193t150 67q98 0 157 -85zM415 173v154q-55 91 -134 91q-59 0 -92 -42.5t-33 -125.5q0 -82 33 -125.5t89 -43.5q42 0 78.5 26t58.5 66z" />
    <glyph glyph-name="r" unicode="r" horiz-adv-x="432" 
d="M182 417q21 37 60 64.5t91 27.5q90 0 90 -68q0 -35 -15 -68q-43 34 -91 34q-81 0 -135 -77v-330h-108v500h37q39 0 53.5 -20t17.5 -63z" />
    <glyph glyph-name="s" unicode="s" horiz-adv-x="482" 
d="M235 79q103 0 103 59q0 28 -29 45t-92 34q-34 10 -51.5 15.5t-45 19t-41.5 27.5t-25 38t-11 54q0 72 54 105.5t139 33.5q94 0 154 -27q30 -14 30 -56q0 -27 -8 -46q-71 40 -173 40q-92 0 -92 -50q0 -27 26.5 -41.5t81.5 -29.5q97 -27 142 -61t45 -102q0 -73 -54 -110
t-146 -37q-105 0 -175 35q-27 15 -27 52q0 29 10 54q80 -52 185 -52z" />
    <glyph glyph-name="t" unicode="t" horiz-adv-x="448" 
d="M22 411v89h108l31 187h75v-188q28 0 85 0.5t86 0.5v-89q-29 0 -86 0.5t-85 0.5v-252q0 -80 77 -80q59 0 82 24q16 -26 16 -48q0 -26 -19 -42q-27 -23 -96 -23q-89 0 -127.5 43.5t-38.5 141.5v236q-36 -1 -108 -1z" />
    <glyph glyph-name="u" unicode="u" horiz-adv-x="602" 
d="M527 500v-395q0 -68 21 -106h-62q-61 0 -66 82q-79 -90 -177 -90q-82 0 -127 51.5t-45 149.5v308h37q71 0 71 -68v-229q0 -116 88 -116q48 0 82.5 20.5t68.5 59.5v333h109z" />
    <glyph glyph-name="v" unicode="v" horiz-adv-x="526" 
d="M524 500l-203 -501h-116l-203 501h54q40 0 56.5 -13t28.5 -44l122 -324l144 381h117z" />
    <glyph glyph-name="w" unicode="w" horiz-adv-x="826" 
d="M469 500l126 -389l105 389h116l-158 -501h-117l-128 388l-128 -388h-117l-158 501h47q41 0 59 -13.5t26 -43.5l89 -332l126 389h112z" />
    <glyph glyph-name="x" unicode="x" horiz-adv-x="515" 
d="M365 36l-109 149l-133 -185h-123l196 257l-184 243h66q28 0 46.5 -8.5t25.5 -16.5t26 -34l82 -113l124 172h120l-185 -243l197 -257h-68q-56 0 -81 36z" />
    <glyph glyph-name="y" unicode="y" horiz-adv-x="527" 
d="M524 500l-217 -542q-41 -98 -78.5 -132t-100.5 -34q-93 0 -93 68q0 26 13 48q26 -28 61 -28q31 0 48.5 14.5t33.5 50.5l23 55l-212 500h53q35 0 53 -12t30 -41l129 -329l140 382h117z" />
    <glyph glyph-name="z" unicode="z" horiz-adv-x="483" 
d="M41 412v26q0 63 63 63h333v-79l-271 -333h278v-89h-409v79l273 333h-267z" />
    <glyph glyph-name="braceleft" unicode="{" horiz-adv-x="343" 
d="M45 261v78h19q26 0 36.5 15.5t13.5 53.5l11 145q6 77 38.5 112t102.5 35h55v-77l-48 -2q-28 -1 -38 -19t-13 -54l-8 -140q-3 -46 -17.5 -70t-43.5 -38q29 -14 43.5 -38t17.5 -70l8 -140q3 -36 13 -54t38 -19l48 -2v-77h-55q-70 0 -102.5 35t-38.5 112l-11 145
q-3 38 -13.5 53.5t-36.5 15.5h-19z" />
    <glyph glyph-name="bar" unicode="|" horiz-adv-x="295" 
d="M100 -100v800h95v-800h-95z" />
    <glyph glyph-name="braceright" unicode="}" horiz-adv-x="343" 
d="M298 339v-78h-19q-26 0 -36.5 -15.5t-13.5 -53.5l-11 -145q-6 -77 -38.5 -112t-102.5 -35h-55v77l48 2q28 1 38 19t13 54l8 140q3 46 17.5 70t43.5 38q-29 14 -43.5 38t-17.5 70l-8 140q-3 36 -13 54t-38 19l-48 2v77h55q70 0 102.5 -35t38.5 -112l11 -145
q3 -38 13.5 -53.5t36.5 -15.5h19z" />
    <glyph glyph-name="asciitilde" unicode="~" horiz-adv-x="595" 
d="M393 364q52 0 90 62l70 -25q-65 -128 -160 -128q-41 0 -99.5 31t-91.5 31q-52 0 -90 -62l-70 25q65 128 160 128q42 0 101 -31t90 -31z" />
    <glyph glyph-name="uni00A0" unicode="&#xa0;" horiz-adv-x="240" 
 />
    <glyph glyph-name="exclamdown" unicode="&#xa1;" horiz-adv-x="245" 
d="M165 310l17 -508h-119l16 508h86zM55 445q0 64 67 64q68 0 68 -64t-68 -64q-67 0 -67 64z" />
    <glyph glyph-name="cent" unicode="&#xa2;" 
d="M340 -100v91q-113 7 -172 76.5t-59 185.5t59 183.5t172 73.5v91h54v-92q62 -3 110 -24q28 -12 28 -48q0 -25 -13 -58q-64 35 -125 39v-335q66 3 134 44q13 -26 13 -54q0 -38 -32 -54q-45 -23 -115 -28v-91h-54zM217 253q0 -150 123 -169v333q-123 -15 -123 -164z" />
    <glyph glyph-name="sterling" unicode="&#xa3;" 
d="M65 316v69h96q-46 68 -46 136q0 86 64.5 137.5t176.5 51.5q116 0 182 -41q20 -13 20 -42q0 -32 -21 -66q-78 49 -181 49q-58 0 -94.5 -26t-36.5 -65q0 -26 10 -52.5t18.5 -40t27.5 -41.5h189v-69h-163q8 -24 8 -46q0 -47 -23.5 -92t-60.5 -78h340v-100h-505v91
q61 21 102.5 68t41.5 101q0 26 -15 56h-130z" />
    <glyph glyph-name="currency" unicode="&#xa4;" horiz-adv-x="526" 
d="M166 317q0 -41 28.5 -70.5t68.5 -29.5t69 29.5t29 70.5q0 40 -29 70t-69 30t-68.5 -30t-28.5 -70zM83 317q0 48 25 90l-37 37l62 61l36 -36q50 27 94 27q47 0 93 -27q14 17 38 35l61 -60l-37 -37q26 -45 26 -90q0 -49 -26 -90l37 -37l-62 -61l-36 36q-46 -27 -94 -27
q-50 0 -94 27q-2 -3 -10.5 -11l-17 -16t-9.5 -9l-61 61l37 37q-25 45 -25 90z" />
    <glyph glyph-name="yen" unicode="&#xa5;" 
d="M264 249h-192v58h183l-49 79h-134v58h98l-157 256h71q29 0 48 -10t28 -21.5t25 -38.5l136 -236l177 306h129l-156 -256h98v-58h-134l-49 -79h183v-58h-191v-249h-114v249z" />
    <glyph glyph-name="brokenbar" unicode="&#xa6;" horiz-adv-x="281" 
d="M194 701v-321h-107v321h107zM194 221v-321h-107v321h107z" />
    <glyph glyph-name="section" unicode="&#xa7;" 
d="M313 -117q96 0 96 65q0 34 -27 54.5t-94 47.5q-72 29 -128 88t-56 127q0 88 103 155q-39 22 -62 58.5t-23 80.5q0 78 53.5 114.5t138.5 36.5q66 0 136 -22q28 -10 40 -23t12 -39q0 -27 -8 -53q-89 45 -180 45q-38 0 -61 -15t-23 -42q0 -34 27.5 -54.5t78.5 -40.5
q203 -80 203 -215q0 -90 -106 -160q86 -54 86 -138q0 -79 -54.5 -120.5t-146.5 -41.5q-87 0 -146 21.5t-59 68.5q0 25 7 58q94 -56 193 -56zM209 266q0 -42 40 -77.5t92 -55.5q37 16 64.5 48.5t27.5 69.5q0 73 -140 129q-35 -20 -59.5 -50.5t-24.5 -63.5z" />
    <glyph glyph-name="dieresis" unicode="&#xa8;" horiz-adv-x="363" 
d="M67 702q31 0 50 -15.5t19 -47.5q0 -31 -19 -46.5t-50 -15.5q-30 0 -49 15.5t-19 46.5q0 63 68 63zM296 702q68 0 68 -63q0 -31 -19 -46.5t-49 -15.5q-31 0 -50 15.5t-19 46.5q0 32 19 47.5t50 15.5z" />
    <glyph glyph-name="copyright" unicode="&#xa9;" horiz-adv-x="836" 
d="M418 -9q-94 0 -165.5 28.5t-114 79t-63 114t-20.5 137.5t20.5 137.5t63 114t114 79t165.5 28.5t165.5 -28.5t114 -79t63 -114t20.5 -137.5t-20.5 -137.5t-63 -114t-114 -79t-165.5 -28.5zM418 48q79 0 138.5 24.5t93 67.5t50 95.5t16.5 114.5t-16.5 114.5t-50 95.5
t-93 67.5t-138.5 24.5t-138.5 -24.5t-93 -67.5t-50 -95.5t-16.5 -114.5t16.5 -114.5t50 -95.5t93 -67.5t138.5 -24.5zM243 351q0 92 49.5 141.5t139.5 49.5q70 0 106 -24q17 -11 17 -39q0 -23 -8 -39q-57 29 -108 29q-107 0 -107 -118t109 -118q55 0 112 33q9 -18 9 -46
t-21 -39q-44 -22 -108 -22q-91 0 -140.5 49.5t-49.5 142.5z" />
    <glyph glyph-name="ordfeminine" unicode="&#xaa;" horiz-adv-x="366" 
d="M326 397h-49q-36 0 -43 41q-43 -45 -98 -45q-43 0 -71.5 23.5t-28.5 67.5q0 55 38.5 79t112.5 24h43q0 29 -13.5 42t-42.5 13q-68 0 -100 -28q-11 17 -11 37q0 18 16 31q30 24 99 24q130 0 130 -114v-112q0 -50 18 -83zM147 457q48 0 84 39v36h-41q-78 0 -78 -43
q0 -32 35 -32z" />
    <glyph glyph-name="guillemotleft" unicode="&#xab;" horiz-adv-x="596" 
d="M26 250l169 212h117l-170 -212l170 -212h-117zM266 250l169 212h117l-170 -212l170 -212h-117z" />
    <glyph glyph-name="logicalnot" unicode="&#xac;" horiz-adv-x="500" 
d="M28 431h423v-264h-112v167h-311v97z" />
    <glyph glyph-name="uni00AD" unicode="&#xad;" horiz-adv-x="233" 
d="M0 343h233v-95h-233v95z" />
    <glyph glyph-name="registered" unicode="&#xae;" horiz-adv-x="519" 
d="M66 525q0 76 49.5 129t144.5 53t144.5 -53t49.5 -129t-49.5 -129t-144.5 -53t-144.5 53t-49.5 129zM267 499h-28v-75h-52v198h81q75 0 75 -60q0 -40 -31 -53l42 -85h-30q-25 0 -35 22zM239 581v-40h31q24 0 24 21q0 19 -24 19h-31zM411 525q0 64 -36.5 104t-114.5 40
t-114.5 -40t-36.5 -104t36.5 -104t114.5 -40t114.5 40t36.5 104z" />
    <glyph glyph-name="macron" unicode="&#xaf;" horiz-adv-x="363" 
d="M7 607v72h349v-72h-349z" />
    <glyph glyph-name="degree" unicode="&#xb0;" horiz-adv-x="347" 
d="M107 586q0 -32 17.5 -51.5t48.5 -19.5t49 19t18 52q0 32 -18 51t-49 19t-48.5 -19t-17.5 -51zM46 586q0 55 35 89t92 34q58 0 93 -34t35 -89t-35.5 -89.5t-92.5 -34.5t-92 34.5t-35 89.5z" />
    <glyph glyph-name="plusminus" unicode="&#xb1;" 
d="M565 275h-193v-178h-103v178h-194v94h194v178h103v-178h193v-94zM75 64h490v-64h-490v64z" />
    <glyph glyph-name="twosuperior" unicode="&#xb2;" horiz-adv-x="298" 
d="M258 397h-222v51q145 83 145 156q0 44 -49 44q-39 0 -73 -20q-18 18 -18 38q0 16 15 26q30 17 78 17q56 0 85 -28t29 -77q0 -41 -27.5 -80t-70.5 -66h108v-61z" />
    <glyph glyph-name="threesuperior" unicode="&#xb3;" horiz-adv-x="305" 
d="M140 453q60 0 60 46q0 45 -59 45h-29l-17 27l73 74h-119v60h204v-48l-72 -68q39 -7 61.5 -31.5t22.5 -58.5q0 -52 -33 -78.5t-88 -26.5q-57 0 -89 18q-12 7 -12 26q0 20 19 39q31 -24 78 -24z" />
    <glyph glyph-name="acute" unicode="&#xb4;" horiz-adv-x="363" 
d="M203 595h-69l76 126q18 31 60 31q49 0 79 -38z" />
    <glyph glyph-name="mu" unicode="&#xb5;" horiz-adv-x="604" 
d="M529 500v-395q0 -68 21 -106h-62q-61 0 -66 82q-29 -38 -71 -64t-87 -26q-52 0 -83 21v-212h-108v700h37q71 0 71 -68v-229q0 -119 93 -119q83 0 146 83v333h109z" />
    <glyph glyph-name="paragraph" unicode="&#xb6;" horiz-adv-x="565" 
d="M426 651v-701q0 -81 -38 -120t-106 -39q-99 0 -99 62q0 18 10 46q32 -17 68 -17q57 0 57 72v398h-35q-111 0 -164 41t-53 151q0 97 49 141.5t167 44.5h226v-79h-82zM262 651v-212h61v212h-61z" />
    <glyph glyph-name="periodcentered" unicode="&#xb7;" horiz-adv-x="246" 
d="M56 297q0 65 67 65q68 0 68 -65q0 -64 -68 -64q-67 0 -67 64z" />
    <glyph glyph-name="cedilla" unicode="&#xb8;" horiz-adv-x="363" 
d="M160 -48h73l-61 -124q-16 -33 -61 -33q-38 0 -60 24z" />
    <glyph glyph-name="onesuperior" unicode="&#xb9;" horiz-adv-x="294" 
d="M125 622l-46 -32l-33 47l92 69h55v-250l71 1v-60h-213v60l74 -1v166z" />
    <glyph glyph-name="ordmasculine" unicode="&#xba;" horiz-adv-x="394" 
d="M123 549q0 -43 19 -66.5t55 -23.5t55 23.5t19 66.5q0 42 -19 65.5t-55 23.5t-55 -23.5t-19 -65.5zM44 549q0 74 39 115.5t114 41.5t114 -41.5t39 -115.5q0 -75 -39 -116.5t-114 -41.5t-114 41.5t-39 116.5z" />
    <glyph glyph-name="guillemotright" unicode="&#xbb;" horiz-adv-x="596" 
d="M160 462l170 -212l-170 -212h-116l170 212l-170 212h116zM400 462l170 -212l-170 -212h-116l170 212l-170 212h116z" />
    <glyph glyph-name="onequarter" unicode="&#xbc;" horiz-adv-x="801" 
d="M176 0l364 701h93l-364 -701h-93zM141 622l-47 -32l-33 47l92 69h55v-250l71 1v-60h-212v60l74 -1v166zM714 60h-42v-60h-67v60h-142v45l154 204h55v-193h42v-56zM605 116l1 90q-1 -1 -33 -43.5t-36 -46.5h68z" />
    <glyph glyph-name="onehalf" unicode="&#xbd;" horiz-adv-x="808" 
d="M176 0l364 701h93l-364 -701h-93zM141 622l-47 -32l-33 47l92 69h55v-250l71 1v-60h-212v60l74 -1v166zM726 0h-223v50q145 85 145 157q0 44 -49 44q-37 0 -73 -21q-18 18 -18 39q0 16 15 25q28 18 78 18q56 0 85 -28t29 -77q0 -42 -27.5 -81t-70.5 -65h109v-61z" />
    <glyph glyph-name="threequarters" unicode="&#xbe;" horiz-adv-x="801" 
d="M176 0l364 701h93l-364 -701h-93zM714 60h-42v-60h-67v60h-142v45l154 204h55v-193h42v-56zM605 116l1 90q-1 -1 -33 -43.5t-36 -46.5h68zM162 453q60 0 60 46q0 45 -58 45h-29l-18 27l73 74h-119v60h204v-48l-71 -68q38 -7 61 -31.5t23 -58.5q0 -51 -33 -78t-88 -27
q-56 0 -90 18q-12 12 -12 26q0 20 19 39q31 -24 78 -24z" />
    <glyph glyph-name="questiondown" unicode="&#xbf;" horiz-adv-x="544" 
d="M299 -208q-119 0 -185 56t-66 145q0 38 18 73.5t43.5 62t51 51.5t43.5 53.5t18 56.5v21h111v-21q0 -33 -17.5 -65t-42.5 -57.5t-50 -50.5t-42.5 -55.5t-17.5 -62.5q0 -47 36 -77t101 -30q126 0 183 56q24 -37 24 -68q0 -29 -22 -44q-64 -44 -186 -44zM344 446
q0 -64 -68 -64q-67 0 -67 64q0 65 67 65q68 0 68 -65z" />
    <glyph glyph-name="Agrave" unicode="&#xc0;" horiz-adv-x="686" 
d="M421 643l260 -643h-119l-68 170h-302l-67 -170h-120l285 702h41q39 0 58 -13.5t32 -45.5zM343 555l-113 -289h226zM410 795h-69l-146 119q30 38 79 38q42 0 60 -31z" />
    <glyph glyph-name="Aacute" unicode="&#xc1;" horiz-adv-x="686" 
d="M421 643l260 -643h-119l-68 170h-302l-67 -170h-120l285 702h41q39 0 58 -13.5t32 -45.5zM343 555l-113 -289h226zM344 795h-69l76 126q18 31 60 31q49 0 79 -38z" />
    <glyph glyph-name="Acircumflex" unicode="&#xc2;" horiz-adv-x="686" 
d="M421 643l260 -643h-119l-68 170h-302l-67 -170h-120l285 702h41q39 0 58 -13.5t32 -45.5zM343 555l-113 -289h226zM312 947h31q17 0 29 -5t15 -8.5t14 -15.5l109 -120h-79l-88 70l-88 -70h-79z" />
    <glyph glyph-name="Atilde" unicode="&#xc3;" horiz-adv-x="686" 
d="M421 643l260 -643h-119l-68 170h-302l-67 -170h-120l285 702h41q39 0 58 -13.5t32 -45.5zM343 555l-113 -289h226zM408 811q-29 0 -71.5 21.5t-59.5 21.5q-34 0 -38 -42h-68q9 116 107 116q29 0 70.5 -22t60.5 -22q34 0 38 43h67q-8 -116 -106 -116z" />
    <glyph glyph-name="Adieresis" unicode="&#xc4;" horiz-adv-x="686" 
d="M421 643l260 -643h-119l-68 170h-302l-67 -170h-120l285 702h41q39 0 58 -13.5t32 -45.5zM343 555l-113 -289h226zM228 902q31 0 50 -15.5t19 -47.5q0 -31 -19 -46.5t-50 -15.5q-30 0 -49 15.5t-19 46.5q0 63 68 63zM457 902q68 0 68 -63q0 -31 -19 -46.5t-49 -15.5
q-31 0 -50 15.5t-19 46.5q0 32 19 47.5t50 15.5z" />
    <glyph glyph-name="Aring" unicode="&#xc5;" horiz-adv-x="686" 
d="M421 643l260 -643h-119l-68 170h-302l-67 -170h-120l285 702h41q39 0 58 -13.5t32 -45.5zM343 555l-113 -289h226zM306 864q0 -17 10 -27.5t27 -10.5t27 10.5t10 27.5q0 38 -37 38q-17 0 -27 -10t-10 -28zM243 864q0 42 28 68t72 26t72 -26t28 -68q0 -41 -28 -67.5
t-72 -26.5t-72 26.5t-28 67.5z" />
    <glyph glyph-name="AE" unicode="&#xc6;" horiz-adv-x="961" 
d="M837 308h-244v-208h340v-100h-452v179h-241l-131 -179h-129l514 700h429v-100h-330v-192h310v-32q0 -68 -66 -68zM481 511l-173 -240h173v240z" />
    <glyph glyph-name="Ccedilla" unicode="&#xc7;" horiz-adv-x="638" 
d="M390 90q107 0 195 61q17 -32 17 -61q0 -49 -60.5 -74t-150.5 -25q-167 0 -254 96.5t-87 268.5q0 164 87 259t248 95q101 0 171 -36q33 -18 33 -63q0 -27 -18 -55q-82 54 -187 54q-106 0 -162.5 -68t-56.5 -186q0 -127 57 -196.5t168 -69.5zM337 -48h73l-61 -124
q-16 -33 -61 -33q-38 0 -60 24z" />
    <glyph glyph-name="Egrave" unicode="&#xc8;" horiz-adv-x="587" 
d="M459 309h-267v-209h368v-100h-480v701h470v-100h-358v-193h332v-31q0 -68 -65 -68zM381 795h-69l-146 119q30 38 79 38q42 0 60 -31z" />
    <glyph glyph-name="Eacute" unicode="&#xc9;" horiz-adv-x="587" 
d="M459 309h-267v-209h368v-100h-480v701h470v-100h-358v-193h332v-31q0 -68 -65 -68zM295 795h-69l76 126q18 31 60 31q49 0 79 -38z" />
    <glyph glyph-name="Ecircumflex" unicode="&#xca;" horiz-adv-x="587" 
d="M459 309h-267v-209h368v-100h-480v701h470v-100h-358v-193h332v-31q0 -68 -65 -68zM262 947h31q17 0 29 -5t15 -8.5t14 -15.5l109 -120h-79l-88 70l-88 -70h-79z" />
    <glyph glyph-name="Edieresis" unicode="&#xcb;" horiz-adv-x="587" 
d="M459 309h-267v-209h368v-100h-480v701h470v-100h-358v-193h332v-31q0 -68 -65 -68zM179 902q31 0 50 -15.5t19 -47.5q0 -31 -19 -46.5t-50 -15.5q-30 0 -49 15.5t-19 46.5q0 63 68 63zM408 902q68 0 68 -63q0 -31 -19 -46.5t-49 -15.5q-31 0 -50 15.5t-19 46.5
q0 32 19 47.5t50 15.5z" />
    <glyph glyph-name="Igrave" unicode="&#xcc;" horiz-adv-x="283" 
d="M83 0v700h42q38 0 55.5 -17t17.5 -54v-629h-115zM209 795h-69l-146 119q30 38 79 38q42 0 60 -31z" />
    <glyph glyph-name="Iacute" unicode="&#xcd;" horiz-adv-x="283" 
d="M83 0v700h42q38 0 55.5 -17t17.5 -54v-629h-115zM143 795h-69l76 126q18 31 60 31q49 0 79 -38z" />
    <glyph glyph-name="Icircumflex" unicode="&#xce;" horiz-adv-x="283" 
d="M83 0v700h42q38 0 55.5 -17t17.5 -54v-629h-115zM111 947h31q17 0 29 -5t15 -8.5t14 -15.5l109 -120h-79l-88 70l-88 -70h-79z" />
    <glyph glyph-name="Idieresis" unicode="&#xcf;" horiz-adv-x="283" 
d="M83 0v700h42q38 0 55.5 -17t17.5 -54v-629h-115zM27 902q31 0 50 -15.5t19 -47.5q0 -31 -19 -46.5t-50 -15.5q-30 0 -49 15.5t-19 46.5q0 63 68 63zM256 902q68 0 68 -63q0 -31 -19 -46.5t-49 -15.5q-31 0 -50 15.5t-19 46.5q0 32 19 47.5t50 15.5z" />
    <glyph glyph-name="Eth" unicode="&#xd0;" horiz-adv-x="722" 
d="M9 377h76v324h242q165 0 255 -90t90 -255q0 -166 -84.5 -261t-247.5 -95h-255v295h-76v82zM200 100h140q107 0 161.5 68t54.5 188q0 117 -59 181t-170 64h-127v-224h165v-82h-165v-195z" />
    <glyph glyph-name="Ntilde" unicode="&#xd1;" horiz-adv-x="749" 
d="M669 700v-700h-112l-362 515v-515h-115v700h48q50 0 82 -25l344 -490v515h115zM440 811q-29 0 -71.5 21.5t-59.5 21.5q-34 0 -38 -42h-68q9 116 107 116q29 0 70.5 -22t60.5 -22q34 0 38 43h67q-8 -116 -106 -116z" />
    <glyph glyph-name="Ograve" unicode="&#xd2;" horiz-adv-x="753" 
d="M376 610q-106 0 -158.5 -69t-52.5 -191t52.5 -191t158.5 -69t159 69t53 191t-53 191t-159 69zM376 710q160 0 243.5 -95.5t83.5 -264.5t-83.5 -264t-243.5 -95t-243 95t-83 264t83 264.5t243 95.5zM454 795h-69l-146 119q30 38 79 38q42 0 60 -31z" />
    <glyph glyph-name="Oacute" unicode="&#xd3;" horiz-adv-x="753" 
d="M376 610q-106 0 -158.5 -69t-52.5 -191t52.5 -191t158.5 -69t159 69t53 191t-53 191t-159 69zM376 710q160 0 243.5 -95.5t83.5 -264.5t-83.5 -264t-243.5 -95t-243 95t-83 264t83 264.5t243 95.5zM368 795h-69l76 126q18 31 60 31q49 0 79 -38z" />
    <glyph glyph-name="Ocircumflex" unicode="&#xd4;" horiz-adv-x="753" 
d="M376 610q-106 0 -158.5 -69t-52.5 -191t52.5 -191t158.5 -69t159 69t53 191t-53 191t-159 69zM376 710q160 0 243.5 -95.5t83.5 -264.5t-83.5 -264t-243.5 -95t-243 95t-83 264t83 264.5t243 95.5zM345 947h31q17 0 29 -5t15 -8.5t14 -15.5l109 -120h-79l-88 70l-88 -70
h-79z" />
    <glyph glyph-name="Otilde" unicode="&#xd5;" horiz-adv-x="753" 
d="M376 610q-106 0 -158.5 -69t-52.5 -191t52.5 -191t158.5 -69t159 69t53 191t-53 191t-159 69zM376 710q160 0 243.5 -95.5t83.5 -264.5t-83.5 -264t-243.5 -95t-243 95t-83 264t83 264.5t243 95.5zM442 811q-30 0 -72 21.5t-59 21.5q-34 0 -38 -42h-68q9 116 107 116
q29 0 70.5 -22t60.5 -22q34 0 38 43h67q-8 -116 -106 -116z" />
    <glyph glyph-name="Odieresis" unicode="&#xd6;" horiz-adv-x="753" 
d="M376 610q-106 0 -158.5 -69t-52.5 -191t52.5 -191t158.5 -69t159 69t53 191t-53 191t-159 69zM376 710q160 0 243.5 -95.5t83.5 -264.5t-83.5 -264t-243.5 -95t-243 95t-83 264t83 264.5t243 95.5zM262 902q31 0 50 -15.5t19 -47.5q0 -31 -19 -46.5t-50 -15.5
q-30 0 -49 15.5t-19 46.5q0 63 68 63zM491 902q68 0 68 -63q0 -31 -19 -46.5t-49 -15.5q-31 0 -50 15.5t-19 46.5q0 32 19 47.5t50 15.5z" />
    <glyph glyph-name="multiply" unicode="&#xd7;" 
d="M468 72l-147 149l-148 -149l-73 73l150 148l-150 147l73 73l148 -149l147 149l73 -73l-149 -147l149 -148z" />
    <glyph glyph-name="Oslash" unicode="&#xd8;" horiz-adv-x="754" 
d="M559 664l53 74h89l-86 -119q88 -92 88 -269q0 -169 -83 -264.5t-243 -95.5q-108 0 -182 46l-53 -74h-90l85 120q-87 93 -87 268q0 169 83.5 265t243.5 96q105 0 182 -47zM377 611q-106 0 -159 -69t-53 -192q0 -107 40 -172l292 398q-49 35 -120 35zM377 90
q106 0 158.5 69t52.5 191q0 106 -41 173l-291 -399q48 -34 121 -34z" />
    <glyph glyph-name="Ugrave" unicode="&#xd9;" horiz-adv-x="734" 
d="M367 -9q-146 0 -218 78t-72 224v407h42q38 0 55.5 -17t17.5 -54v-328q0 -211 175 -211q174 0 174 211v399h116v-407q0 -146 -72 -224t-218 -78zM444 795h-69l-146 119q30 38 79 38q42 0 60 -31z" />
    <glyph glyph-name="Uacute" unicode="&#xda;" horiz-adv-x="734" 
d="M367 -9q-146 0 -218 78t-72 224v407h42q38 0 55.5 -17t17.5 -54v-328q0 -211 175 -211q174 0 174 211v399h116v-407q0 -146 -72 -224t-218 -78zM358 795h-69l76 126q18 31 60 31q49 0 79 -38z" />
    <glyph glyph-name="Ucircumflex" unicode="&#xdb;" horiz-adv-x="734" 
d="M367 -9q-146 0 -218 78t-72 224v407h42q38 0 55.5 -17t17.5 -54v-328q0 -211 175 -211q174 0 174 211v399h116v-407q0 -146 -72 -224t-218 -78zM336 947h31q17 0 29 -5t15 -8.5t14 -15.5l109 -120h-79l-88 70l-88 -70h-79z" />
    <glyph glyph-name="Udieresis" unicode="&#xdc;" horiz-adv-x="734" 
d="M367 -9q-146 0 -218 78t-72 224v407h42q38 0 55.5 -17t17.5 -54v-328q0 -211 175 -211q174 0 174 211v399h116v-407q0 -146 -72 -224t-218 -78zM252 902q31 0 50 -15.5t19 -47.5q0 -31 -19 -46.5t-50 -15.5q-30 0 -49 15.5t-19 46.5q0 63 68 63zM481 902q68 0 68 -63
q0 -31 -19 -46.5t-49 -15.5q-31 0 -50 15.5t-19 46.5q0 32 19 47.5t50 15.5z" />
    <glyph glyph-name="Yacute" unicode="&#xdd;" horiz-adv-x="637" 
d="M631 700l-255 -408v-292h-114v292l-256 408h70q34 0 52.5 -9.5t32.5 -31.5l158 -265l182 306h130zM310 795h-69l76 126q18 31 60 31q49 0 79 -38z" />
    <glyph glyph-name="Thorn" unicode="&#xde;" horiz-adv-x="635" 
d="M194 499v-233h148q136 0 136 117q0 116 -136 116h-148zM80 700h41q73 0 73 -71v-29h147q127 0 189 -56.5t62 -160.5q0 -103 -64.5 -160t-186.5 -57h-146v-166h-115v700z" />
    <glyph glyph-name="germandbls" unicode="&#xdf;" horiz-adv-x="674" 
d="M246 143q19 -22 58 -38t74 -16q135 0 135 120q0 61 -41.5 96.5t-113.5 35.5h-54v91h63q112 0 112 84q0 42 -34 69.5t-101 27.5q-83 0 -124.5 -46.5t-41.5 -123.5v-443h-107v443q0 51 15 96t46 84t85 61.5t125 22.5q119 0 181 -52.5t62 -130.5q0 -50 -27.5 -86t-70.5 -50
q133 -41 133 -185q0 -94 -56 -150.5t-171 -56.5q-86 0 -125 19t-39 59q0 17 5.5 39t11.5 30z" />
    <glyph glyph-name="agrave" unicode="&#xe0;" horiz-adv-x="599" 
d="M421 173v160q-53 85 -136 85q-60 0 -94.5 -43t-34.5 -125t34.5 -125.5t89.5 -43.5q43 0 81 26t60 66zM528 447v-342q0 -68 21 -106h-62q-60 0 -66 82q-23 -39 -66 -65t-97 -26q-95 0 -152.5 67t-57.5 193q0 125 58.5 192.5t152.5 67.5q106 0 160 -85l8 75h46
q30 0 42.5 -12t12.5 -41zM377 595h-69l-146 119q30 38 79 38q42 0 60 -31z" />
    <glyph glyph-name="aacute" unicode="&#xe1;" horiz-adv-x="599" 
d="M421 173v160q-53 85 -136 85q-60 0 -94.5 -43t-34.5 -125t34.5 -125.5t89.5 -43.5q43 0 81 26t60 66zM528 447v-342q0 -68 21 -106h-62q-60 0 -66 82q-23 -39 -66 -65t-97 -26q-95 0 -152.5 67t-57.5 193q0 125 58.5 192.5t152.5 67.5q106 0 160 -85l8 75h46
q30 0 42.5 -12t12.5 -41zM291 595h-69l76 126q18 31 60 31q49 0 79 -38z" />
    <glyph glyph-name="acircumflex" unicode="&#xe2;" horiz-adv-x="599" 
d="M421 173v160q-53 85 -136 85q-60 0 -94.5 -43t-34.5 -125t34.5 -125.5t89.5 -43.5q43 0 81 26t60 66zM528 447v-342q0 -68 21 -106h-62q-60 0 -66 82q-23 -39 -66 -65t-97 -26q-95 0 -152.5 67t-57.5 193q0 125 58.5 192.5t152.5 67.5q106 0 160 -85l8 75h46
q30 0 42.5 -12t12.5 -41zM268 747h31q17 0 29 -5t15 -8.5t14 -15.5l109 -120h-79l-88 70l-88 -70h-79z" />
    <glyph glyph-name="atilde" unicode="&#xe3;" horiz-adv-x="599" 
d="M421 173v160q-53 85 -136 85q-60 0 -94.5 -43t-34.5 -125t34.5 -125.5t89.5 -43.5q43 0 81 26t60 66zM528 447v-342q0 -68 21 -106h-62q-60 0 -66 82q-23 -39 -66 -65t-97 -26q-95 0 -152.5 67t-57.5 193q0 125 58.5 192.5t152.5 67.5q106 0 160 -85l8 75h46
q30 0 42.5 -12t12.5 -41zM365 611q-29 0 -71 21.5t-60 21.5q-34 0 -38 -42h-68q9 116 107 116q29 0 70.5 -22t60.5 -22q34 0 38 43h67q-8 -116 -106 -116z" />
    <glyph glyph-name="adieresis" unicode="&#xe4;" horiz-adv-x="599" 
d="M421 173v160q-53 85 -136 85q-60 0 -94.5 -43t-34.5 -125t34.5 -125.5t89.5 -43.5q43 0 81 26t60 66zM528 447v-342q0 -68 21 -106h-62q-60 0 -66 82q-23 -39 -66 -65t-97 -26q-95 0 -152.5 67t-57.5 193q0 125 58.5 192.5t152.5 67.5q106 0 160 -85l8 75h46
q30 0 42.5 -12t12.5 -41zM185 702q31 0 50 -15.5t19 -47.5q0 -31 -19 -46.5t-50 -15.5q-30 0 -49 15.5t-19 46.5q0 63 68 63zM414 702q68 0 68 -63q0 -31 -19 -46.5t-49 -15.5q-31 0 -50 15.5t-19 46.5q0 32 19 47.5t50 15.5z" />
    <glyph glyph-name="aring" unicode="&#xe5;" horiz-adv-x="599" 
d="M421 173v160q-53 85 -136 85q-60 0 -94.5 -43t-34.5 -125t34.5 -125.5t89.5 -43.5q43 0 81 26t60 66zM528 447v-342q0 -68 21 -106h-62q-60 0 -66 82q-23 -39 -66 -65t-97 -26q-95 0 -152.5 67t-57.5 193q0 125 58.5 192.5t152.5 67.5q106 0 160 -85l8 75h46
q30 0 42.5 -12t12.5 -41zM262 664q0 -17 10 -27.5t27 -10.5t27 10.5t10 27.5q0 38 -37 38q-17 0 -27 -10t-10 -28zM199 664q0 42 28 68t72 26t72 -26t28 -68q0 -41 -28 -67.5t-72 -26.5t-72 26.5t-28 67.5z" />
    <glyph glyph-name="ae" unicode="&#xe6;" horiz-adv-x="880" 
d="M624 78q92 0 161 57q10 -24 10 -45q0 -42 -40.5 -70.5t-133.5 -28.5q-71 0 -123 31t-76 83q-77 -112 -230 -112q-68 0 -113 37.5t-45 108.5q0 87 62.5 123t183.5 36h90v20q0 54 -28.5 79.5t-89.5 25.5q-104 0 -161 -41q-7 15 -7 36q0 42 27 60q22 14 66.5 23t87.5 9
q119 0 165 -83q56 83 172 83q112 0 167.5 -64.5t55.5 -184.5v-36h-353q0 -63 41 -105t111 -42zM211 78q96 0 159 85v62h-85q-77 0 -113.5 -16.5t-36.5 -62.5q0 -33 21.5 -50.5t54.5 -17.5zM472 297h249q0 61 -31 93.5t-87 32.5q-124 0 -131 -126z" />
    <glyph glyph-name="ccedilla" unicode="&#xe7;" horiz-adv-x="509" 
d="M47 252q0 122 64 190t185 68q105 0 148 -32q20 -14 20 -41q0 -30 -13 -58q-70 40 -148 40q-74 0 -111 -43.5t-37 -123.5t38.5 -125.5t115.5 -45.5q80 0 151 46q14 -30 14 -54q0 -29 -20 -45q-49 -37 -152 -37q-124 0 -189.5 69.5t-65.5 191.5zM272 -48h73l-61 -124
q-16 -33 -61 -33q-38 0 -60 24z" />
    <glyph glyph-name="egrave" unicode="&#xe8;" horiz-adv-x="568" 
d="M306 78q105 0 168 57q10 -24 10 -44q0 -50 -34 -68q-62 -32 -144 -32q-130 0 -194.5 67.5t-64.5 191.5q0 122 63 191t181 69q106 0 164.5 -67t58.5 -179v-58h-358q7 -61 46 -94.5t104 -33.5zM155 284h254q0 63 -31 101t-87 38q-60 0 -95 -36.5t-41 -102.5zM361 595h-69
l-146 119q30 38 79 38q42 0 60 -31z" />
    <glyph glyph-name="eacute" unicode="&#xe9;" horiz-adv-x="568" 
d="M306 78q105 0 168 57q10 -24 10 -44q0 -50 -34 -68q-62 -32 -144 -32q-130 0 -194.5 67.5t-64.5 191.5q0 122 63 191t181 69q106 0 164.5 -67t58.5 -179v-58h-358q7 -61 46 -94.5t104 -33.5zM155 284h254q0 63 -31 101t-87 38q-60 0 -95 -36.5t-41 -102.5zM275 595h-69
l76 126q18 31 60 31q49 0 79 -38z" />
    <glyph glyph-name="ecircumflex" unicode="&#xea;" horiz-adv-x="568" 
d="M306 78q105 0 168 57q10 -24 10 -44q0 -50 -34 -68q-62 -32 -144 -32q-130 0 -194.5 67.5t-64.5 191.5q0 122 63 191t181 69q106 0 164.5 -67t58.5 -179v-58h-358q7 -61 46 -94.5t104 -33.5zM155 284h254q0 63 -31 101t-87 38q-60 0 -95 -36.5t-41 -102.5zM253 747h31
q17 0 29 -5t15 -8.5t14 -15.5l109 -120h-79l-88 70l-88 -70h-79z" />
    <glyph glyph-name="edieresis" unicode="&#xeb;" horiz-adv-x="568" 
d="M306 78q105 0 168 57q10 -24 10 -44q0 -50 -34 -68q-62 -32 -144 -32q-130 0 -194.5 67.5t-64.5 191.5q0 122 63 191t181 69q106 0 164.5 -67t58.5 -179v-58h-358q7 -61 46 -94.5t104 -33.5zM155 284h254q0 63 -31 101t-87 38q-60 0 -95 -36.5t-41 -102.5zM169 702
q31 0 50 -15.5t19 -47.5q0 -31 -19 -46.5t-50 -15.5q-30 0 -49 15.5t-19 46.5q0 63 68 63zM398 702q68 0 68 -63q0 -31 -19 -46.5t-49 -15.5q-31 0 -50 15.5t-19 46.5q0 32 19 47.5t50 15.5z" />
    <glyph glyph-name="igrave" unicode="&#xec;" horiz-adv-x="261" 
d="M185 432v-432h-109v501h38q71 0 71 -69zM188 595h-69l-146 119q30 38 79 38q42 0 60 -31z" />
    <glyph glyph-name="iacute" unicode="&#xed;" horiz-adv-x="261" 
d="M185 432v-432h-109v501h38q71 0 71 -69zM142 595h-69l76 126q18 31 60 31q49 0 79 -38z" />
    <glyph glyph-name="icircumflex" unicode="&#xee;" horiz-adv-x="261" 
d="M185 432v-432h-109v501h38q71 0 71 -69zM100 747h31q17 0 29 -5t15 -8.5t14 -15.5l109 -120h-79l-88 70l-88 -70h-79z" />
    <glyph glyph-name="idieresis" unicode="&#xef;" horiz-adv-x="261" 
d="M185 432v-432h-109v501h38q71 0 71 -69zM16 702q31 0 50 -15.5t19 -47.5q0 -31 -19 -46.5t-50 -15.5q-30 0 -49 15.5t-19 46.5q0 63 68 63zM245 702q68 0 68 -63q0 -31 -19 -46.5t-49 -15.5q-31 0 -50 15.5t-19 46.5q0 32 19 47.5t50 15.5z" />
    <glyph glyph-name="eth" unicode="&#xf0;" horiz-adv-x="618" 
d="M566 615l-64 -30q64 -94 64 -237q0 -179 -71.5 -268t-208.5 -89q-111 0 -181 62.5t-70 179.5q0 106 60 169t174 63q54 0 102.5 -22t80.5 -57q-6 92 -48 151l-87 -39l-15 59l54 25q-37 30 -109 30q-36 0 -70 -11q-10 17 -10 42q0 14 2.5 24t10 21t26 16.5t46.5 5.5
q136 0 209 -77l90 41zM282 370q-68 0 -101 -37t-33 -100q0 -71 38.5 -109t96.5 -38q80 0 123 52t45 150q-74 82 -169 82z" />
    <glyph glyph-name="ntilde" unicode="&#xf1;" horiz-adv-x="615" 
d="M181 419q32 37 81 63.5t107 26.5q84 0 128.5 -51.5t44.5 -150.5v-307h-38q-71 0 -71 68v229q0 119 -93 119q-87 0 -158 -83v-333h-108v500h36q39 0 53.5 -19t17.5 -62zM373 611q-29 0 -71 21.5t-60 21.5q-34 0 -38 -42h-68q9 116 107 116q29 0 70.5 -22t60.5 -22
q34 0 38 43h67q-8 -116 -106 -116z" />
    <glyph glyph-name="ograve" unicode="&#xf2;" horiz-adv-x="596" 
d="M155 250q0 -80 36.5 -125t106.5 -45t106 45t36 125t-36 124.5t-106 44.5t-106.5 -44.5t-36.5 -124.5zM47 250q0 122 64.5 190.5t186.5 68.5q121 0 186 -68.5t65 -190.5t-64.5 -190.5t-186.5 -68.5t-186.5 68.5t-64.5 190.5zM375 595h-69l-146 119q30 38 79 38
q42 0 60 -31z" />
    <glyph glyph-name="oacute" unicode="&#xf3;" horiz-adv-x="596" 
d="M155 250q0 -80 36.5 -125t106.5 -45t106 45t36 125t-36 124.5t-106 44.5t-106.5 -44.5t-36.5 -124.5zM47 250q0 122 64.5 190.5t186.5 68.5q121 0 186 -68.5t65 -190.5t-64.5 -190.5t-186.5 -68.5t-186.5 68.5t-64.5 190.5zM289 595h-69l76 126q18 31 60 31q49 0 79 -38z
" />
    <glyph glyph-name="ocircumflex" unicode="&#xf4;" horiz-adv-x="596" 
d="M155 250q0 -80 36.5 -125t106.5 -45t106 45t36 125t-36 124.5t-106 44.5t-106.5 -44.5t-36.5 -124.5zM47 250q0 122 64.5 190.5t186.5 68.5q121 0 186 -68.5t65 -190.5t-64.5 -190.5t-186.5 -68.5t-186.5 68.5t-64.5 190.5zM267 747h31q17 0 29 -5t15 -8.5t14 -15.5
l109 -120h-79l-88 70l-88 -70h-79z" />
    <glyph glyph-name="otilde" unicode="&#xf5;" horiz-adv-x="596" 
d="M155 250q0 -80 36.5 -125t106.5 -45t106 45t36 125t-36 124.5t-106 44.5t-106.5 -44.5t-36.5 -124.5zM47 250q0 122 64.5 190.5t186.5 68.5q121 0 186 -68.5t65 -190.5t-64.5 -190.5t-186.5 -68.5t-186.5 68.5t-64.5 190.5zM363 611q-29 0 -71.5 21.5t-59.5 21.5
q-34 0 -38 -42h-68q9 116 107 116q29 0 70.5 -22t60.5 -22q34 0 38 43h67q-8 -116 -106 -116z" />
    <glyph glyph-name="odieresis" unicode="&#xf6;" horiz-adv-x="596" 
d="M155 250q0 -80 36.5 -125t106.5 -45t106 45t36 125t-36 124.5t-106 44.5t-106.5 -44.5t-36.5 -124.5zM47 250q0 122 64.5 190.5t186.5 68.5q121 0 186 -68.5t65 -190.5t-64.5 -190.5t-186.5 -68.5t-186.5 68.5t-64.5 190.5zM183 702q31 0 50 -15.5t19 -47.5
q0 -31 -19 -46.5t-50 -15.5q-30 0 -49 15.5t-19 46.5q0 63 68 63zM412 702q68 0 68 -63q0 -31 -19 -46.5t-49 -15.5q-31 0 -50 15.5t-19 46.5q0 32 19 47.5t50 15.5z" />
    <glyph glyph-name="divide" unicode="&#xf7;" 
d="M563 245h-485v94h485v-94zM253 122q0 64 67 64q68 0 68 -64t-68 -64q-67 0 -67 64zM253 462q0 64 67 64q68 0 68 -64q0 -65 -68 -65q-67 0 -67 65z" />
    <glyph glyph-name="oslash" unicode="&#xf8;" horiz-adv-x="596" 
d="M50 -37l66 91q-69 68 -69 196q0 122 64.5 190.5t186.5 68.5q74 0 128 -28l41 57h79l-67 -93q70 -68 70 -195q0 -122 -64.5 -190.5t-186.5 -68.5q-76 0 -128 27l-40 -55h-80zM155 250q0 -66 24 -107l190 257q-30 19 -71 19q-69 0 -106 -45.5t-37 -123.5zM440 250
q0 64 -24 105l-190 -257q28 -18 72 -18q69 0 105.5 45.5t36.5 124.5z" />
    <glyph glyph-name="ugrave" unicode="&#xf9;" horiz-adv-x="602" 
d="M527 500v-395q0 -68 21 -106h-62q-61 0 -66 82q-79 -90 -177 -90q-82 0 -127 51.5t-45 149.5v308h37q71 0 71 -68v-229q0 -116 88 -116q48 0 82.5 20.5t68.5 59.5v333h109zM388 595h-69l-146 119q30 38 79 38q42 0 60 -31z" />
    <glyph glyph-name="uacute" unicode="&#xfa;" horiz-adv-x="602" 
d="M527 500v-395q0 -68 21 -106h-62q-61 0 -66 82q-79 -90 -177 -90q-82 0 -127 51.5t-45 149.5v308h37q71 0 71 -68v-229q0 -116 88 -116q48 0 82.5 20.5t68.5 59.5v333h109zM282 595h-69l76 126q18 31 60 31q49 0 79 -38z" />
    <glyph glyph-name="ucircumflex" unicode="&#xfb;" horiz-adv-x="602" 
d="M527 500v-395q0 -68 21 -106h-62q-61 0 -66 82q-79 -90 -177 -90q-82 0 -127 51.5t-45 149.5v308h37q71 0 71 -68v-229q0 -116 88 -116q48 0 82.5 20.5t68.5 59.5v333h109zM270 747h31q17 0 29 -5t15 -8.5t14 -15.5l109 -120h-79l-88 70l-88 -70h-79z" />
    <glyph glyph-name="udieresis" unicode="&#xfc;" horiz-adv-x="602" 
d="M527 500v-395q0 -68 21 -106h-62q-61 0 -66 82q-79 -90 -177 -90q-82 0 -127 51.5t-45 149.5v308h37q71 0 71 -68v-229q0 -116 88 -116q48 0 82.5 20.5t68.5 59.5v333h109zM186 702q31 0 50 -15.5t19 -47.5q0 -31 -19 -46.5t-50 -15.5q-30 0 -49 15.5t-19 46.5
q0 63 68 63zM415 702q68 0 68 -63q0 -31 -19 -46.5t-49 -15.5q-31 0 -50 15.5t-19 46.5q0 32 19 47.5t50 15.5z" />
    <glyph glyph-name="yacute" unicode="&#xfd;" horiz-adv-x="527" 
d="M524 500l-217 -542q-41 -98 -78.5 -132t-100.5 -34q-93 0 -93 68q0 26 13 48q26 -28 61 -28q31 0 48.5 14.5t33.5 50.5l23 55l-212 500h53q35 0 53 -12t30 -41l129 -329l140 382h117zM265 595h-69l76 126q18 31 60 31q49 0 79 -38z" />
    <glyph glyph-name="thorn" unicode="&#xfe;" horiz-adv-x="596" 
d="M180 327v-154q23 -41 59 -66.5t79 -25.5q55 0 88 43.5t33 125.5q0 83 -33 125.5t-92 42.5q-79 0 -134 -91zM74 -200v900h38q70 0 70 -68v-213q59 91 158 91q93 0 150 -67t57 -193t-56.5 -193t-150.5 -67q-104 0 -158 90v-280h-108z" />
    <glyph glyph-name="ydieresis" unicode="&#xff;" horiz-adv-x="527" 
d="M524 500l-217 -542q-41 -98 -78.5 -132t-100.5 -34q-93 0 -93 68q0 26 13 48q26 -28 61 -28q31 0 48.5 14.5t33.5 50.5l23 55l-212 500h53q35 0 53 -12t30 -41l129 -329l140 382h117zM149 702q31 0 50 -15.5t19 -47.5q0 -31 -19 -46.5t-50 -15.5q-30 0 -49 15.5t-19 46.5
q0 63 68 63zM378 702q68 0 68 -63q0 -31 -19 -46.5t-49 -15.5q-31 0 -50 15.5t-19 46.5q0 32 19 47.5t50 15.5z" />
    <glyph glyph-name="dotlessi" unicode="&#x131;" horiz-adv-x="261" 
d="M185 432v-432h-109v501h38q71 0 71 -69z" />
    <glyph glyph-name="Lslash" unicode="&#x141;" horiz-adv-x="564" 
d="M196 400l152 87l35 -59l-187 -109v-219h355v-100h-470v252l-50 -28l-35 60l85 49v368h41q38 0 56 -17.5t18 -54.5v-229z" />
    <glyph glyph-name="lslash" unicode="&#x142;" horiz-adv-x="263" 
d="M185 313v-313h-108v250l-46 -27l-34 61l80 47v369h37q71 0 71 -68v-239l46 27l35 -59z" />
    <glyph glyph-name="OE" unicode="&#x152;" horiz-adv-x="1065" 
d="M936 308h-266v-208h367v-100h-480v65q-69 -74 -193 -74q-152 0 -233 95.5t-81 263.5t80 264t229 96q127 0 198 -76v66h470v-100h-357v-192h332v-32q0 -68 -66 -68zM372 610q-103 0 -155 -69t-52 -191t52 -191t155 -69q131 0 185 106v304q-54 110 -185 110z" />
    <glyph glyph-name="oe" unicode="&#x153;" horiz-adv-x="933" 
d="M671 78q99 0 168 57q10 -24 10 -44q0 -37 -25 -58q-52 -42 -153 -42q-135 0 -199 78q-51 -78 -174 -78q-122 0 -186.5 68.5t-64.5 190.5q0 120 62.5 189t180.5 69q122 0 180 -79q61 81 186 81q106 0 164.5 -67t58.5 -179v-59h-358q17 -127 150 -127zM155 250
q0 -80 36.5 -125t106.5 -45q93 0 124 78q-10 40 -10 92t11 91q-33 78 -125 78q-70 0 -106.5 -44.5t-36.5 -124.5zM521 285h253q0 63 -31 100.5t-87 37.5q-60 0 -95 -36t-40 -102z" />
    <glyph glyph-name="Scaron" unicode="&#x160;" horiz-adv-x="614" 
d="M285 89q78 0 122.5 27.5t44.5 79.5q0 48 -40 74t-122 46q-128 33 -183.5 79.5t-55.5 133.5q0 83 63.5 132.5t185.5 49.5q126 0 198 -38q32 -17 32 -57q0 -26 -16 -60q-88 55 -209 55q-140 0 -140 -80q0 -44 33.5 -66.5t120.5 -45.5q121 -30 183.5 -80.5t62.5 -140.5
q0 -104 -74.5 -156t-206.5 -52q-55 0 -112 12.5t-92 29.5q-32 15 -32 58q0 34 15 64q41 -29 102.5 -47t119.5 -18zM307 794h-31l-136 149h79l88 -70l88 70h79l-113 -125q-23 -24 -54 -24z" />
    <glyph glyph-name="scaron" unicode="&#x161;" horiz-adv-x="482" 
d="M235 79q103 0 103 59q0 28 -29 45t-92 34q-34 10 -51.5 15.5t-45 19t-41.5 27.5t-25 38t-11 54q0 72 54 105.5t139 33.5q94 0 154 -27q30 -14 30 -56q0 -27 -8 -46q-71 40 -173 40q-92 0 -92 -50q0 -27 26.5 -41.5t81.5 -29.5q97 -27 142 -61t45 -102q0 -73 -54 -110
t-146 -37q-105 0 -175 35q-27 15 -27 52q0 29 10 54q80 -52 185 -52zM241 594h-31l-136 149h79l88 -70l88 70h79l-113 -125q-23 -24 -54 -24z" />
    <glyph glyph-name="Ydieresis" unicode="&#x178;" horiz-adv-x="637" 
d="M631 700l-255 -408v-292h-114v292l-256 408h70q34 0 52.5 -9.5t32.5 -31.5l158 -265l182 306h130zM204 902q31 0 50 -15.5t19 -47.5q0 -31 -19 -46.5t-50 -15.5q-30 0 -49 15.5t-19 46.5q0 63 68 63zM433 902q68 0 68 -63q0 -31 -19 -46.5t-49 -15.5q-31 0 -50 15.5
t-19 46.5q0 32 19 47.5t50 15.5z" />
    <glyph glyph-name="Zcaron" unicode="&#x17d;" horiz-adv-x="603" 
d="M419 602q-124 0 -372 -2v32q0 68 66 68h451v-95l-391 -508q133 0 403 2v-99h-549v94zM301 794h-31l-136 149h79l88 -70l88 70h79l-113 -125q-23 -24 -54 -24z" />
    <glyph glyph-name="zcaron" unicode="&#x17e;" horiz-adv-x="483" 
d="M41 412v26q0 63 63 63h333v-79l-271 -333h278v-89h-409v79l273 333h-267zM241 594h-31l-136 149h79l88 -70l88 70h79l-113 -125q-23 -24 -54 -24z" />
    <glyph glyph-name="florin" unicode="&#x192;" 
d="M166 -27l68 312l-102 -1l19 90h102l34 158q19 91 75 134t136 44q53 0 84 -22q17 -11 17 -37q0 -17 -18 -50q-35 19 -85 19q-42 0 -70 -24t-37 -67l-34 -156l160 1l-19 -90l-155 2l-68 -316q-19 -91 -75 -134t-136 -44q-61 0 -89 20q-16 11 -16 39q0 21 18 54
q32 -23 85 -23q42 0 69.5 24t36.5 67z" />
    <glyph glyph-name="circumflex" unicode="&#x2c6;" horiz-adv-x="363" 
d="M150 747h31q17 0 29 -5t15 -8.5t14 -15.5l109 -120h-79l-88 70l-88 -70h-79z" />
    <glyph glyph-name="caron" unicode="&#x2c7;" horiz-adv-x="363" 
d="M181 594h-31l-136 149h79l88 -70l88 70h79l-113 -125q-23 -24 -54 -24z" />
    <glyph glyph-name="breve" unicode="&#x2d8;" horiz-adv-x="363" 
d="M181 675q71 0 80 56h73q-6 -64 -48 -97.5t-105 -33.5q-64 0 -106 33.5t-48 97.5h74q8 -56 80 -56z" />
    <glyph glyph-name="dotaccent" unicode="&#x2d9;" horiz-adv-x="363" 
d="M181 699q31 0 50 -15.5t19 -46.5q0 -32 -19 -47.5t-50 -15.5q-30 0 -49 15.5t-19 46.5q0 63 68 63z" />
    <glyph glyph-name="ring" unicode="&#x2da;" horiz-adv-x="363" 
d="M144 664q0 -17 10 -27.5t27 -10.5t27 10.5t10 27.5q0 38 -37 38q-17 0 -27 -10t-10 -28zM81 664q0 42 28 68t72 26t72 -26t28 -68q0 -41 -28 -67.5t-72 -26.5t-72 26.5t-28 67.5z" />
    <glyph glyph-name="ogonek" unicode="&#x2db;" horiz-adv-x="363" 
d="M138 3h73l109 -133q-24 -24 -60 -24q-46 0 -61 34z" />
    <glyph glyph-name="tilde" unicode="&#x2dc;" horiz-adv-x="363" 
d="M247 611q-29 0 -71 21.5t-60 21.5q-34 0 -38 -42h-68q9 116 107 116q29 0 70.5 -22t60.5 -22q34 0 38 43h67q-8 -116 -106 -116z" />
    <glyph glyph-name="hungarumlaut" unicode="&#x2dd;" horiz-adv-x="363" 
d="M120 595h-73l61 124q15 33 61 33q38 0 60 -24zM307 595h-73l61 124q17 33 61 33q39 0 60 -24z" />
    <glyph glyph-name="uni03A9" unicode="&#x3a9;" horiz-adv-x="782" 
d="M391 606q-98 0 -161.5 -63.5t-63.5 -165.5q0 -85 57.5 -164t128.5 -129v-20l-54 -64h-221v87h161q-71 45 -127 127t-56 177q0 142 93 230.5t243 88.5t243 -88.5t93 -230.5q0 -95 -56 -177t-127 -127h161v-87h-221l-54 64v20q71 50 128.5 129t57.5 164q0 102 -63.5 165.5
t-161.5 63.5z" />
    <glyph glyph-name="pi" unicode="&#x3c0;" horiz-adv-x="724" 
d="M432 142v264h-166l-34 -406h-104l32 406h-123v94h623v-94h-123v-257q0 -68 56 -68q38 0 68 17q10 -28 10 -46q0 -34 -25 -47.5t-75 -13.5q-64 0 -101.5 39t-37.5 112z" />
    <glyph glyph-name="endash" unicode="&#x2013;" horiz-adv-x="579" 
d="M37 331h505v-91h-505v91z" />
    <glyph glyph-name="emdash" unicode="&#x2014;" horiz-adv-x="785" 
d="M37 331h712v-91h-712v91z" />
    <glyph glyph-name="quoteleft" unicode="&#x2018;" horiz-adv-x="249" 
d="M140 700h69l-33 -183q-6 -40 -57 -40q-39 0 -62 21z" />
    <glyph glyph-name="quoteright" unicode="&#x2019;" horiz-adv-x="249" 
d="M109 480h-69l32 183q4 23 17.5 31.5t39.5 8.5q40 0 63 -21z" />
    <glyph glyph-name="quotesinglbase" unicode="&#x201a;" horiz-adv-x="249" 
d="M109 -168h-69l32 183q6 40 57 40q40 0 63 -21z" />
    <glyph glyph-name="quotedblleft" unicode="&#x201c;" horiz-adv-x="416" 
d="M308 700h68l-32 -183q-4 -23 -17.5 -31.5t-39.5 -8.5q-39 0 -63 21zM140 700h69l-33 -183q-6 -40 -57 -40q-39 0 -62 21z" />
    <glyph glyph-name="quotedblright" unicode="&#x201d;" horiz-adv-x="416" 
d="M109 480h-69l32 183q4 23 17.5 31.5t39.5 8.5q40 0 63 -21zM276 480h-68l32 183q6 40 57 40q39 0 62 -21z" />
    <glyph glyph-name="quotedblbase" unicode="&#x201e;" horiz-adv-x="416" 
d="M109 -168h-69l32 183q4 23 17.5 31.5t39.5 8.5q40 0 63 -21zM276 -168h-68l32 183q6 40 57 40q39 0 62 -21z" />
    <glyph glyph-name="dagger" unicode="&#x2020;" horiz-adv-x="517" 
d="M311 -100h-106v513l-169 -1v97l169 -1l-5 192h116l-5 -192l169 1v-97l-169 1v-513z" />
    <glyph glyph-name="daggerdbl" unicode="&#x2021;" horiz-adv-x="517" 
d="M316 -100h-116l5 192l-169 -1v97l169 -1v226l-169 -1v97l169 -1l-5 192h116l-5 -192l169 1v-97l-169 1v-226l169 1v-97l-169 1z" />
    <glyph glyph-name="bullet" unicode="&#x2022;" horiz-adv-x="415" 
d="M77 317q0 62 30.5 94t99.5 32q131 0 131 -126q0 -125 -131 -125q-130 0 -130 125z" />
    <glyph glyph-name="ellipsis" unicode="&#x2026;" horiz-adv-x="741" 
d="M56 56q0 64 67 64q68 0 68 -64t-68 -64q-67 0 -67 64zM303 56q0 64 67 64q68 0 68 -64t-68 -64q-67 0 -67 64zM550 56q0 64 67 64q68 0 68 -64t-68 -64q-67 0 -67 64z" />
    <glyph glyph-name="perthousand" unicode="&#x2030;" horiz-adv-x="1115" 
d="M156 0l365 701h93l-364 -701h-94zM52 550q0 74 37.5 115.5t99.5 41.5q61 0 98.5 -41.5t37.5 -115.5q0 -73 -37.5 -114.5t-98.5 -41.5q-62 0 -99.5 41.5t-37.5 114.5zM240 550q0 43 -14 65t-37 22t-37.5 -22t-14.5 -65q0 -42 14.5 -64t37.5 -22t37 22t14 64zM446 147
q0 74 37.5 115t98.5 41t98.5 -41t37.5 -115q0 -73 -37.5 -114.5t-98.5 -41.5t-98.5 41.5t-37.5 114.5zM633 147q0 43 -14 65t-37 22t-37 -22t-14 -65q0 -42 14 -64t37 -22t37 22t14 64zM791 147q0 74 37.5 115t98.5 41t98.5 -41t37.5 -115q0 -73 -37.5 -114.5t-98.5 -41.5
t-98.5 41.5t-37.5 114.5zM978 147q0 43 -14 65t-37 22t-37 -22t-14 -65q0 -42 14 -64t37 -22t37 22t14 64z" />
    <glyph glyph-name="guilsinglleft" unicode="&#x2039;" horiz-adv-x="356" 
d="M26 250l169 212h117l-170 -212l170 -212h-117z" />
    <glyph glyph-name="guilsinglright" unicode="&#x203a;" horiz-adv-x="356" 
d="M160 462l170 -212l-170 -212h-116l170 212l-170 212h116z" />
    <glyph glyph-name="fraction" unicode="&#x2044;" horiz-adv-x="469" 
d="M6 0l364 701h93l-364 -701h-93z" />
    <glyph glyph-name="Euro" unicode="&#x20ac;" 
d="M49 445h60q19 119 94.5 192t193.5 73q53 0 101 -17t72 -41q18 -18 18 -41q0 -36 -37 -73q-60 72 -150 72q-68 0 -113.5 -45.5t-61.5 -119.5h211l-28 -68h-193q0 -22 0.5 -40t0.5 -20h174l-28 -69h-134q18 -72 64.5 -115t117.5 -43q90 0 154 70q36 -38 36 -68
q0 -26 -26 -49t-71.5 -37.5t-95.5 -14.5q-123 0 -199.5 69t-97.5 188h-91l29 69h54q-1 11 -1 60h-82z" />
    <glyph glyph-name="afii61289" unicode="&#x2113;" horiz-adv-x="488" 
d="M388 186l81 -51q-69 -143 -193 -143q-69 0 -111 36.5t-55 100.5l-36 -31l-62 74l91 79v241q0 111 44.5 164.5t112.5 53.5q67 0 102.5 -46.5t35.5 -132.5q0 -82 -49 -157.5t-144 -162.5q0 -47 21.5 -85t58.5 -38q57 0 103 98zM205 503v-160q38 39 65 93.5t27 98.5
q0 82 -38 82q-21 0 -37.5 -28.5t-16.5 -85.5z" />
    <glyph glyph-name="trademark" unicode="&#x2122;" horiz-adv-x="723" 
d="M514 488h-45l-62 94q0 -9 1 -30.5t1 -30.5v-121h-72v300h64l91 -136l90 136h65v-300h-71v121q0 9 1 31t1 31zM291 639l-92 1v-240h-72v240l-92 -1v61h256v-61z" />
    <glyph glyph-name="Omega" unicode="&#x2126;" horiz-adv-x="782" 
d="M391 606q-98 0 -161.5 -63.5t-63.5 -165.5q0 -85 57.5 -164t128.5 -129v-20l-54 -64h-221v87h161q-71 45 -127 127t-56 177q0 142 93 230.5t243 88.5t243 -88.5t93 -230.5q0 -95 -56 -177t-127 -127h161v-87h-221l-54 64v20q71 50 128.5 129t57.5 164q0 102 -63.5 165.5
t-161.5 63.5z" />
    <glyph glyph-name="estimated" unicode="&#x212e;" horiz-adv-x="856" 
d="M820 335h-628q-5 0 -5 -4v-185q0 -19 8 -29q83 -96 240 -96q158 0 252 109h58q-55 -65 -136 -102t-175 -37q-165 0 -279.5 105t-114.5 253q0 150 112.5 254.5t277.5 104.5t277.5 -104.5t112.5 -254.5v-14zM673 365v186q0 24 -11 36q-93 91 -231 91q-141 0 -235 -97
q-9 -9 -9 -29v-187q0 -6 5 -6h476q5 0 5 6z" />
    <glyph glyph-name="partialdiff" unicode="&#x2202;" horiz-adv-x="644" 
d="M321 479q53 0 97 -20.5t67 -49.5q9 205 -140 205q-98 0 -151 -45q-13 27 -13 58q0 27 23 42q65 41 160 41q106 0 167.5 -66.5t61.5 -186.5q0 -63 -12.5 -127t-40.5 -125t-67 -108.5t-96.5 -76.5t-125.5 -29q-99 0 -157.5 52t-58.5 146q0 121 77 205.5t209 84.5zM331 384
q-88 0 -138 -56.5t-50 -133.5q0 -49 28.5 -79t75.5 -30q74 0 130.5 57.5t85.5 162.5q-38 79 -132 79z" />
    <glyph glyph-name="Delta" unicode="&#x2206;" horiz-adv-x="660" 
d="M292 702h76l256 -634v-68h-588v68zM505 98l-175 449l-175 -449h350z" />
    <glyph glyph-name="product" unicode="&#x220f;" horiz-adv-x="714" 
d="M197 600v-700h-115v800h550v-800h-115v700h-320z" />
    <glyph glyph-name="summation" unicode="&#x2211;" horiz-adv-x="628" 
d="M182 -6l410 1v-95h-551v81l252 336l-232 302v82h507v-97l-363 2l220 -288z" />
    <glyph glyph-name="minus" unicode="&#x2212;" 
d="M557 245h-473v94h473v-94z" />
    <glyph glyph-name="radical" unicode="&#x221a;" horiz-adv-x="667" 
d="M614 730l-207 -830h-104l-154 387l-73 -31l-35 91l171 69l131 -351l158 665h113z" />
    <glyph glyph-name="infinity" unicode="&#x221e;" horiz-adv-x="846" 
d="M149 291q0 -34 27 -57t68 -23q36 0 73.5 22t65.5 61q-29 37 -66 60t-73 23q-42 0 -68.5 -24t-26.5 -62zM424 359q91 100 191 100q71 0 124 -47t53 -120q0 -78 -51.5 -124.5t-128.5 -46.5q-107 0 -191 95q-85 -95 -183 -95q-76 0 -130 47t-54 121q0 77 51.5 123.5
t128.5 46.5q103 0 190 -100zM697 289q0 33 -27 56.5t-68 23.5q-36 0 -73.5 -23t-65.5 -63q63 -80 139 -80q41 0 68 24t27 62z" />
    <glyph glyph-name="integral" unicode="&#x222b;" horiz-adv-x="419" 
d="M155 31v493q0 186 144 186q43 0 73 -17q26 -14 26 -45q0 -20 -10 -46q-30 17 -67 17q-58 0 -58 -72v-493q0 -185 -145 -185q-42 0 -73 17q-26 14 -26 46q0 16 11 45q30 -17 67 -17q58 0 58 71z" />
    <glyph glyph-name="approxequal" unicode="&#x2248;" 
d="M414 405q52 0 90 63l70 -26q-64 -127 -160 -127q-42 0 -100.5 31t-90.5 31q-52 0 -90 -63l-70 25q64 128 160 128q43 0 101.5 -31t89.5 -31zM414 206q52 0 90 63l70 -25q-64 -128 -160 -128q-42 0 -100.5 31t-90.5 31q-52 0 -90 -63l-70 25q64 128 160 128
q43 0 101.5 -31t89.5 -31z" />
    <glyph glyph-name="notequal" unicode="&#x2260;" 
d="M297 350h-210v89h234l72 261h73l-70 -261h158v-89h-183l-31 -116h214v-89h-239l-66 -245h-74l66 245h-154v89h179z" />
    <glyph glyph-name="lessequal" unicode="&#x2264;" 
d="M88 326v56l449 246v-101l-318 -173l318 -175v-100zM88 64h449v-64h-449v64z" />
    <glyph glyph-name="greaterequal" unicode="&#x2265;" 
d="M553 382v-56l-449 -247v100l318 175l-318 173v101zM104 64h449v-64h-449v64z" />
    <glyph glyph-name="lozenge" unicode="&#x25ca;" horiz-adv-x="582" 
d="M289 584l-130 -234l130 -232l134 231zM41 350l210 352h79l211 -352l-211 -352h-79z" />
    <glyph glyph-name="uniF8FF" unicode="&#xf8ff;" horiz-adv-x="889" 
d="M710 189q0 -30 -8 -46t-29 -26l-203 -104v239q0 27 18 37l145 74q13 7 29 7q21 0 34.5 -14t13.5 -40v-127zM632 472q24 -12 24 -36q0 -28 -33 -45l-148 -75q-31 -16 -31 -61v-255l-265 135v260q0 36 29 52l165 84q37 19 69 19q33 0 75 -21z" />
    <glyph glyph-name="a.superior" horiz-adv-x="366" 
d="M326 397h-49q-36 0 -43 41q-43 -45 -98 -45q-43 0 -71.5 23.5t-28.5 67.5q0 55 38.5 79t112.5 24h43q0 29 -13.5 42t-42.5 13q-68 0 -100 -28q-11 17 -11 37q0 18 16 31q30 24 99 24q130 0 130 -114v-112q0 -50 18 -83zM147 457q48 0 84 39v36h-41q-78 0 -78 -43
q0 -32 35 -32z" />
    <glyph glyph-name="o.superior" horiz-adv-x="394" 
d="M123 549q0 -43 19 -66.5t55 -23.5t55 23.5t19 66.5q0 42 -19 65.5t-55 23.5t-55 -23.5t-19 -65.5zM44 549q0 74 39 115.5t114 41.5t114 -41.5t39 -115.5q0 -75 -39 -116.5t-114 -41.5t-114 41.5t-39 116.5z" />
    </font>
</defs>
</svg>
